<svg width="309" height="323" viewBox="0 0 309 323" fill="none" xmlns="http://www.w3.org/2000/svg">
<path d="M145.01 0.264648C149.981 0.535591 154.895 1.01184 159.746 1.69141C159.659 2.29732 160.079 2.86035 160.685 2.94922C166.309 3.77389 171.845 4.86912 177.278 6.22168C177.872 6.3696 178.473 6.00839 178.623 5.41504C183.429 6.64444 188.155 8.07493 192.792 9.69531C192.589 10.2721 192.891 10.9057 193.467 11.1113C198.803 13.0149 204.018 15.1727 209.096 17.5713C209.65 17.8329 210.31 17.5967 210.573 17.0439C215.035 19.1864 219.391 21.5136 223.631 24.0156C223.317 24.5417 223.49 25.2224 224.015 25.5371C228.864 28.4405 233.559 31.5755 238.083 34.9258C238.574 35.2896 239.266 35.1872 239.633 34.6982C243.584 37.6636 247.404 40.7931 251.084 44.0771C250.676 44.5324 250.713 45.2323 251.167 45.6426C255.352 49.4259 259.35 53.4118 263.145 57.584C263.557 58.0362 264.256 58.0697 264.71 57.6611C268.006 61.331 271.147 65.1421 274.124 69.084C273.636 69.4517 273.537 70.1454 273.902 70.6357C277.266 75.1508 280.415 79.8359 283.331 84.6758C283.647 85.1999 284.326 85.3688 284.851 85.0557C287.365 89.2891 289.704 93.6382 291.857 98.0938C291.306 98.3584 291.072 99.0203 291.335 99.5732C293.746 104.647 295.916 109.856 297.83 115.188C298.037 115.763 298.67 116.062 299.246 115.858C300.876 120.492 302.314 125.216 303.55 130.021C302.958 130.172 302.599 130.773 302.748 131.367C304.108 136.799 305.21 142.333 306.04 147.956C306.129 148.561 306.691 148.979 307.296 148.893C307.979 153.742 308.46 158.657 308.733 163.627C308.124 163.66 307.655 164.18 307.684 164.79C307.82 167.593 307.888 170.414 307.888 173.25C307.888 176.086 307.82 178.907 307.684 181.71C307.655 182.32 308.124 182.839 308.733 182.872C308.46 187.842 307.979 192.757 307.296 197.606C306.729 197.526 306.2 197.888 306.062 198.433L306.04 198.544C305.314 203.464 304.38 208.316 303.246 213.091L302.748 215.133C302.599 215.726 302.958 216.327 303.55 216.479C302.314 221.283 300.876 226.007 299.246 230.641C298.67 230.437 298.037 230.737 297.83 231.312C295.916 236.644 293.746 241.853 291.335 246.927C291.072 247.48 291.306 248.14 291.857 248.405C289.704 252.861 287.365 257.21 284.851 261.443C284.326 261.131 283.647 261.3 283.331 261.824C280.779 266.059 278.05 270.176 275.154 274.164L273.902 275.865C273.537 276.355 273.637 277.047 274.124 277.415C271.147 281.357 268.006 285.168 264.71 288.838C264.256 288.43 263.557 288.464 263.145 288.916C259.35 293.088 255.352 297.074 251.167 300.857C250.713 301.267 250.677 301.967 251.084 302.422C247.404 305.706 243.584 308.835 239.633 311.801C239.266 311.312 238.574 311.211 238.083 311.574C234.124 314.506 230.035 317.272 225.826 319.863L224.015 320.963C223.49 321.277 223.318 321.957 223.631 322.483C219.391 324.985 215.035 327.313 210.573 329.455C210.31 328.903 209.65 328.667 209.096 328.929C204.018 331.327 198.803 333.485 193.467 335.389C192.891 335.594 192.589 336.227 192.792 336.804C188.155 338.424 183.429 339.855 178.623 341.084C178.482 340.528 177.945 340.177 177.389 340.257L177.278 340.278C172.524 341.462 167.691 342.449 162.79 343.229L160.685 343.551C160.079 343.64 159.659 344.202 159.746 344.808C154.895 345.487 149.981 345.963 145.01 346.234C144.977 345.625 144.459 345.156 143.848 345.186C141.045 345.321 138.225 345.389 135.388 345.389C132.552 345.389 129.731 345.321 126.928 345.186C126.318 345.156 125.799 345.625 125.765 346.234C120.795 345.963 115.88 345.487 111.03 344.808C111.117 344.202 110.697 343.64 110.091 343.551C104.468 342.726 98.9321 341.631 93.4987 340.278C92.9047 340.131 92.303 340.491 92.153 341.084C87.3464 339.855 82.6205 338.424 77.9841 336.804C78.1868 336.227 77.8856 335.594 77.3093 335.389C71.9735 333.485 66.7587 331.327 61.6804 328.929L61.5759 328.885C61.046 328.697 60.4495 328.937 60.2028 329.455C55.7411 327.313 51.3852 324.985 47.1452 322.483C47.458 321.957 47.2876 321.278 46.7624 320.963L44.9509 319.863C40.742 317.272 36.6528 314.506 32.694 311.574C32.2025 311.211 31.5093 311.312 31.1432 311.801C27.1918 308.835 23.3714 305.706 19.6921 302.422C20.0995 301.967 20.0637 301.268 19.61 300.857L18.0495 299.43C14.4287 296.075 10.9527 292.567 7.63153 288.916C7.22022 288.464 6.52108 288.429 6.06708 288.837C2.77118 285.167 -0.371385 281.358 -3.34796 277.416C-2.85978 277.048 -2.75976 276.355 -3.12531 275.864C-6.48972 271.349 -9.63787 266.664 -12.554 261.824C-12.87 261.3 -13.5505 261.13 -14.0755 261.443C-16.5894 257.21 -18.9284 252.861 -21.0814 248.405C-20.5296 248.141 -20.2951 247.48 -20.5579 246.927L-21.4505 245.018C-23.5073 240.549 -25.3785 235.977 -27.053 231.312C-27.26 230.737 -27.8937 230.436 -28.47 230.641C-30.0997 226.007 -31.5381 221.283 -32.7747 216.479C-32.1818 216.328 -31.8214 215.727 -31.97 215.133L-32.4691 213.091C-33.6028 208.316 -34.5371 203.464 -35.263 198.544C-35.3525 197.939 -35.9146 197.52 -36.5198 197.606C-37.2036 192.757 -37.6847 187.842 -37.9573 182.872C-37.3474 182.839 -36.8782 182.321 -36.9075 181.71L-36.9964 179.604C-37.0475 178.199 -37.0818 176.788 -37.0989 175.374L-37.1116 173.25C-37.1116 170.414 -37.0434 167.593 -36.9075 164.79C-36.8781 164.179 -37.3474 163.66 -37.9573 163.627C-37.6847 158.657 -37.2037 153.742 -36.5198 148.893C-35.9524 148.974 -35.4233 148.612 -35.2855 148.067L-35.263 147.956C-34.5371 143.036 -33.6028 138.184 -32.4691 133.409L-31.97 131.367C-31.8214 130.773 -32.1817 130.171 -32.7747 130.021C-31.5381 125.216 -30.0998 120.492 -28.47 115.858C-27.9296 116.05 -27.3392 115.799 -27.097 115.292L-27.053 115.188C-25.3785 110.523 -23.5073 105.951 -21.4505 101.482L-20.5579 99.5732C-20.295 99.02 -20.5293 98.3582 -21.0814 98.0938C-18.9284 93.6383 -16.5894 89.2891 -14.0755 85.0557C-13.5832 85.3499 -12.9545 85.2192 -12.6175 84.7695L-12.554 84.6758C-9.6378 79.8358 -6.48982 75.1499 -3.12531 70.6348C-2.75988 70.1441 -2.85946 69.4504 -3.34796 69.083C-0.371377 65.1413 2.77117 61.3318 6.06708 57.6621C6.49253 58.0446 7.13298 58.0384 7.55048 57.6641L7.63153 57.584C10.9527 53.9332 14.4288 50.4248 18.0495 47.0703L19.61 45.6426C20.0639 45.2322 20.1 44.5324 19.6921 44.0771C23.3714 40.7931 27.1918 37.6636 31.1432 34.6982C31.4863 35.157 32.1167 35.275 32.5993 34.9883L32.694 34.9258C36.6528 31.9942 40.742 29.2276 44.9509 26.6367L46.7624 25.5371C47.2879 25.2222 47.4586 24.5417 47.1452 24.0156C51.3851 21.5136 55.7411 19.1864 60.2028 17.0439C60.4657 17.597 61.1263 17.8329 61.6804 17.5713C66.1239 15.4725 70.672 13.5581 75.3141 11.8369L77.3093 11.1113C77.8859 10.9056 78.1874 10.2722 77.9841 9.69531C82.6205 8.0749 87.3464 6.64447 92.153 5.41504C92.2933 5.97145 92.831 6.32324 93.3874 6.24316L93.4987 6.22168C98.253 5.03818 103.086 4.05115 107.987 3.27051L110.091 2.94922C110.698 2.86034 111.117 2.29738 111.03 1.69141C115.88 1.01181 120.795 0.535621 125.765 0.264648C125.798 0.874416 126.318 1.34386 126.928 1.31445C129.731 1.17939 132.552 1.11133 135.388 1.11133C138.225 1.11133 141.045 1.17939 143.848 1.31445C144.459 1.34388 144.978 0.874399 145.01 0.264648Z" stroke="#6D4ECB" stroke-opacity="0.13" stroke-width="2.22222" stroke-linecap="round" stroke-linejoin="round" stroke-dasharray="16.67 16.67"/>
<path fill-rule="evenodd" clip-rule="evenodd" d="M61.6321 348.765C104.247 348.765 138.793 314.291 138.793 271.765C138.793 229.239 104.247 194.765 61.6321 194.765C19.0175 194.765 -15.5285 229.239 -15.5285 271.765C-15.5285 314.291 19.0175 348.765 61.6321 348.765ZM61.6321 462C166.915 462 252.264 376.829 252.264 271.765C252.264 166.701 166.915 81.5295 61.6321 81.5295C-43.6511 81.5295 -129 166.701 -129 271.765C-129 376.829 -43.6511 462 61.6321 462Z" fill="#6D4ECB" fill-opacity="0.13"/>
</svg>
