<svg width="465" height="367" viewBox="0 0 465 367" fill="none" xmlns="http://www.w3.org/2000/svg">
<path fill-rule="evenodd" clip-rule="evenodd" d="M464.317 -22.9318C464.325 -23.2392 464.332 -23.5466 464.339 -23.8541C464.409 -26.931 464.444 -30.0165 464.444 -33.1103C464.444 -36.204 464.409 -39.2897 464.339 -42.3666C464.332 -42.6741 464.325 -42.9815 464.317 -43.2888C464.31 -43.5963 464.301 -43.9037 464.293 -44.211C463.276 -44.1856 462.472 -43.342 462.495 -42.3247C462.564 -39.2617 462.599 -36.1901 462.599 -33.1103C462.599 -30.0305 462.564 -26.959 462.495 -23.896C462.472 -22.8787 463.276 -22.035 464.293 -22.0096C464.301 -22.317 464.31 -22.6243 464.317 -22.9318ZM463.622 -7.2639C462.607 -7.33108 461.729 -6.56411 461.659 -5.54893C461.239 0.586506 460.68 6.68363 459.985 12.7393C459.868 13.7502 460.593 14.6639 461.603 14.7822C461.639 14.477 461.675 14.1716 461.711 13.8661C461.747 13.5608 461.782 13.2553 461.818 12.9497C462.516 6.86603 463.078 0.740782 463.5 -5.42292C463.521 -5.72961 463.541 -6.03645 463.562 -6.34334C463.582 -6.65009 463.602 -6.95696 463.622 -7.2639ZM459.581 29.4034C458.577 29.2432 457.632 29.926 457.469 30.9305C456.487 36.9961 455.368 43.0156 454.114 48.9859C453.905 49.9817 454.542 50.9585 455.537 51.1697C455.601 50.869 455.666 50.5683 455.73 50.2675C455.793 49.9668 455.857 49.6659 455.92 49.3649C457.179 43.3668 458.304 37.3192 459.29 31.2254C459.34 30.9219 459.388 30.6183 459.437 30.3146C459.485 30.011 459.533 29.7072 459.581 29.4034ZM452.169 65.542C451.184 65.2892 450.18 65.8815 449.925 66.8665C448.385 72.8119 446.711 78.7032 444.907 84.5371C444.606 85.5092 445.149 86.5408 446.12 86.8436C446.212 86.5503 446.304 86.2568 446.396 85.9632C446.487 85.6697 446.578 85.3761 446.669 85.0823C448.482 79.2211 450.164 73.3022 451.711 67.3291C451.788 67.0315 451.865 66.7337 451.941 66.4358C452.017 66.138 452.093 65.84 452.169 65.542ZM441.428 100.847C440.471 100.504 439.416 101 439.07 101.957C436.986 107.73 434.771 113.44 432.43 119.086C432.04 120.025 432.485 121.103 433.424 121.495C433.543 121.211 433.661 120.928 433.78 120.644C433.898 120.36 434.016 120.076 434.134 119.792C436.486 114.121 438.711 108.383 440.806 102.584C440.91 102.295 441.014 102.005 441.118 101.716C441.222 101.426 441.325 101.137 441.428 100.847ZM427.452 135C426.531 134.569 425.434 134.965 425.001 135.886C422.391 141.437 419.656 146.917 416.8 152.323C416.325 153.223 416.668 154.338 417.566 154.815C417.711 154.543 417.856 154.272 418 154C418.144 153.729 418.288 153.457 418.432 153.185C421.301 147.753 424.048 142.248 426.671 136.671C426.801 136.393 426.932 136.115 427.062 135.836C427.192 135.557 427.322 135.279 427.452 135ZM410.37 167.708C409.492 167.193 408.364 167.486 407.847 168.363C404.736 173.646 401.507 178.85 398.163 183.972C397.606 184.824 397.845 185.965 398.695 186.523C398.865 186.266 399.033 186.01 399.202 185.752C399.371 185.495 399.539 185.238 399.707 184.981C403.067 179.835 406.312 174.606 409.437 169.299C409.593 169.034 409.749 168.769 409.904 168.504C410.06 168.239 410.215 167.973 410.37 167.708ZM390.34 198.697C389.514 198.104 388.363 198.292 387.768 199.117C384.185 204.088 380.49 208.973 376.687 213.768C376.055 214.565 376.187 215.724 376.983 216.358C377.175 216.118 377.367 215.877 377.559 215.637C377.75 215.396 377.942 215.156 378.133 214.915C381.953 210.098 385.665 205.19 389.265 200.196C389.445 199.947 389.624 199.697 389.803 199.447C389.983 199.197 390.161 198.947 390.34 198.697ZM367.544 227.712C366.776 227.046 365.613 227.127 364.944 227.894C360.922 232.513 356.794 237.038 352.565 241.466C351.862 242.202 351.888 243.367 352.622 244.071C352.835 243.85 353.049 243.628 353.261 243.407C353.474 243.185 353.687 242.963 353.899 242.74C358.148 238.292 362.294 233.746 366.336 229.106C366.538 228.874 366.739 228.642 366.941 228.409C367.142 228.177 367.343 227.945 367.544 227.712ZM342.182 254.512C341.478 253.778 340.312 253.752 339.576 254.455C335.148 258.684 330.623 262.811 326.004 266.834C325.237 267.502 325.156 268.666 325.822 269.434C326.055 269.233 326.287 269.032 326.52 268.831C326.752 268.629 326.984 268.427 327.216 268.225C331.856 264.184 336.402 260.038 340.85 255.789C341.073 255.577 341.295 255.364 341.517 255.151C341.739 254.938 341.96 254.725 342.182 254.512ZM314.468 278.873C313.834 278.077 312.676 277.945 311.878 278.577C307.083 282.38 302.199 286.075 297.228 289.658C296.402 290.253 296.214 291.404 296.807 292.23C297.058 292.051 297.308 291.872 297.557 291.693C297.807 291.514 298.057 291.334 298.306 291.155C303.3 287.555 308.208 283.843 313.025 280.022C313.266 279.831 313.507 279.64 313.747 279.448C313.988 279.257 314.228 279.065 314.468 278.873ZM284.633 300.585C284.076 299.735 282.934 299.496 282.082 300.052C276.96 303.397 271.756 306.626 266.473 309.737C265.597 310.253 265.304 311.382 265.818 312.259C266.083 312.105 266.349 311.95 266.614 311.794C266.88 311.639 267.145 311.483 267.41 311.327C272.717 308.202 277.945 304.957 283.091 301.597C283.348 301.429 283.606 301.261 283.863 301.092C284.12 300.923 284.377 300.754 284.633 300.585ZM252.925 319.456C252.448 318.558 251.333 318.215 250.434 318.69C245.027 321.546 239.547 324.281 233.996 326.891C233.075 327.324 232.679 328.42 233.11 329.342C233.389 329.212 233.668 329.082 233.946 328.952C234.225 328.822 234.503 328.691 234.781 328.56C240.358 325.938 245.864 323.191 251.295 320.322C251.567 320.178 251.839 320.034 252.111 319.89C252.382 319.746 252.654 319.601 252.925 319.456ZM219.605 335.313C219.213 334.375 218.136 333.93 217.196 334.32C211.551 336.661 205.84 338.875 200.067 340.96C199.11 341.306 198.614 342.361 198.957 343.318C199.247 343.215 199.537 343.112 199.826 343.008C200.115 342.904 200.405 342.8 200.694 342.695C206.494 340.601 212.231 338.376 217.902 336.024C218.186 335.906 218.47 335.788 218.754 335.67C219.038 335.551 219.322 335.432 219.605 335.313ZM184.954 348.01C184.651 347.039 183.619 346.496 182.647 346.796C176.813 348.601 170.922 350.275 164.977 351.814C163.992 352.07 163.399 353.074 163.652 354.059C163.95 353.983 164.248 353.907 164.546 353.831C164.844 353.754 165.142 353.678 165.439 353.601C171.412 352.054 177.331 350.372 183.193 348.559C183.486 348.468 183.78 348.377 184.073 348.285C184.367 348.194 184.661 348.102 184.954 348.01ZM149.28 357.427C149.069 356.432 148.092 355.795 147.096 356.004C141.126 357.257 135.106 358.377 129.041 359.359C128.036 359.522 127.353 360.467 127.514 361.471C127.817 361.423 128.121 361.375 128.425 361.327C128.729 361.278 129.032 361.229 129.336 361.18C135.429 360.194 141.477 359.069 147.475 357.81C147.776 357.747 148.077 357.683 148.378 357.619C148.679 357.555 148.979 357.491 149.28 357.427ZM112.892 363.493C112.774 362.482 111.86 361.758 110.85 361.874C104.794 362.57 98.6968 363.129 92.5614 363.549C91.5462 363.618 90.7792 364.497 90.8464 365.511C91.1534 365.492 91.4602 365.472 91.767 365.452C92.0739 365.431 92.3807 365.411 92.6874 365.39C98.8511 364.968 104.976 364.406 111.06 363.707C111.366 363.672 111.671 363.637 111.976 363.601C112.282 363.565 112.587 363.529 112.892 363.493ZM76.1007 366.183C76.0753 365.166 75.2317 364.361 74.2144 364.384C71.1514 364.454 68.0798 364.489 65 364.489C61.9202 364.489 58.8486 364.454 55.7857 364.384C54.7684 364.361 53.9247 365.166 53.8993 366.183C54.2066 366.191 54.514 366.199 54.8215 366.207C55.1288 366.215 55.4362 366.222 55.7437 366.229C58.8207 366.299 61.9062 366.334 65 366.334C68.0937 366.334 71.1793 366.299 74.2563 366.229C74.5638 366.222 74.8712 366.215 75.1785 366.207C75.486 366.199 75.7934 366.191 76.1007 366.183ZM39.1536 365.511C39.2208 364.497 38.4538 363.618 37.4386 363.549C31.3032 363.129 25.2061 362.57 19.1504 361.874C18.1395 361.758 17.2258 362.482 17.1075 363.493C17.4127 363.529 17.7181 363.565 18.0236 363.601C18.3289 363.637 18.6344 363.672 18.94 363.707C25.0237 364.406 31.1489 364.968 37.3126 365.39C37.6193 365.411 37.9261 365.431 38.233 365.452C38.5398 365.472 38.8466 365.492 39.1536 365.511ZM2.48626 361.471C2.64654 360.467 1.96367 359.522 0.95921 359.359C-5.10638 358.377 -11.1259 357.257 -17.0962 356.004C-18.092 355.795 -19.0688 356.432 -19.28 357.427C-18.9794 357.491 -18.6786 357.555 -18.3778 357.619C-18.077 357.683 -17.7762 357.747 -17.4752 357.81C-11.4771 359.069 -5.42949 360.194 0.664311 361.18C0.967796 361.229 1.27139 361.278 1.57513 361.327C1.87873 361.375 2.18244 361.423 2.48626 361.471ZM-33.6523 354.059C-33.3995 353.074 -33.9918 352.07 -34.9769 351.814C-40.9222 350.275 -46.8135 348.601 -52.6474 346.796C-53.6194 346.496 -54.6512 347.039 -54.9539 348.01C-54.6606 348.102 -54.3672 348.194 -54.0736 348.285C-53.7801 348.377 -53.4864 348.468 -53.1926 348.559C-47.3314 350.372 -41.4126 352.054 -35.4395 353.601C-35.1418 353.678 -34.8441 353.754 -34.5461 353.831C-34.2483 353.907 -33.9504 353.983 -33.6523 354.059ZM-68.9573 343.318C-68.614 342.361 -69.1103 341.306 -70.0674 340.96C-75.8401 338.875 -81.5507 336.661 -87.1958 334.32C-88.1357 333.93 -89.2135 334.375 -89.6052 335.313C-89.3217 335.432 -89.0381 335.551 -88.7543 335.67C-88.4705 335.788 -88.1866 335.906 -87.9026 336.024C-82.2311 338.376 -76.4937 340.601 -70.694 342.695C-70.4048 342.8 -70.1155 342.904 -69.826 343.008C-69.5366 343.112 -69.247 343.215 -68.9573 343.318ZM-103.11 329.342C-102.679 328.42 -103.076 327.324 -103.996 326.891C-109.547 324.281 -115.027 321.546 -120.434 318.69C-121.334 318.215 -122.448 318.558 -122.925 319.456C-122.654 319.601 -122.382 319.745 -122.111 319.89C-121.839 320.034 -121.567 320.178 -121.296 320.322C-115.864 323.191 -110.358 325.938 -104.782 328.56C-104.503 328.691 -104.225 328.822 -103.946 328.952C-103.668 329.082 -103.389 329.212 -103.11 329.342ZM-135.818 312.26C-135.304 311.382 -135.597 310.253 -136.474 309.737C-141.756 306.626 -146.96 303.397 -152.082 300.052C-152.934 299.496 -154.076 299.735 -154.634 300.585C-154.377 300.754 -154.12 300.923 -153.863 301.092C-153.606 301.261 -153.348 301.429 -153.091 301.597C-147.945 304.957 -142.717 308.202 -137.41 311.327C-137.145 311.483 -136.88 311.639 -136.614 311.794C-136.349 311.95 -136.084 312.105 -135.818 312.26ZM-166.807 292.23C-166.214 291.404 -166.402 290.253 -167.228 289.658C-172.199 286.075 -177.083 282.38 -181.879 278.577C-182.676 277.945 -183.834 278.077 -184.468 278.873C-184.228 279.065 -183.988 279.257 -183.747 279.448C-183.507 279.64 -183.266 279.831 -183.025 280.022C-178.208 283.843 -173.3 287.555 -168.307 291.155C-168.057 291.334 -167.807 291.514 -167.558 291.693C-167.308 291.872 -167.058 292.051 -166.807 292.23ZM-195.822 269.434C-195.156 268.666 -195.237 267.502 -196.004 266.834C-200.623 262.812 -205.149 258.684 -209.576 254.455C-210.312 253.752 -211.478 253.778 -212.182 254.512C-211.96 254.725 -211.739 254.938 -211.517 255.151C-211.295 255.364 -211.073 255.577 -210.85 255.789C-206.402 260.038 -201.856 264.184 -197.216 268.225C-196.984 268.427 -196.752 268.629 -196.52 268.831C-196.287 269.032 -196.055 269.233 -195.822 269.434ZM-222.622 244.071C-221.888 243.367 -221.862 242.202 -222.565 241.466C-226.794 237.038 -230.922 232.513 -234.944 227.894C-235.613 227.127 -236.776 227.046 -237.544 227.712C-237.343 227.945 -237.142 228.177 -236.941 228.41C-236.739 228.642 -236.538 228.874 -236.336 229.106C-232.295 233.746 -228.148 238.292 -223.899 242.74C-223.687 242.963 -223.474 243.185 -223.262 243.407C-223.049 243.628 -222.836 243.85 -222.622 244.071ZM-246.983 216.358C-246.188 215.724 -246.055 214.565 -246.687 213.768C-250.49 208.973 -254.185 204.088 -257.768 199.117C-258.363 198.292 -259.514 198.104 -260.34 198.697C-260.162 198.947 -259.983 199.197 -259.803 199.447C-259.624 199.697 -259.445 199.947 -259.265 200.196C-255.665 205.19 -251.954 210.098 -248.133 214.915C-247.942 215.156 -247.75 215.396 -247.559 215.637C-247.367 215.877 -247.175 216.118 -246.983 216.358ZM-268.695 186.523C-267.845 185.965 -267.606 184.824 -268.163 183.972C-271.507 178.85 -274.737 173.646 -277.847 168.363C-278.364 167.486 -279.492 167.193 -280.37 167.708C-280.215 167.973 -280.06 168.239 -279.904 168.504C-279.749 168.769 -279.593 169.035 -279.437 169.299C-276.312 174.606 -273.067 179.835 -269.707 184.981C-269.539 185.238 -269.371 185.495 -269.202 185.753C-269.034 186.01 -268.865 186.267 -268.695 186.523ZM-287.566 154.815C-286.668 154.338 -286.325 153.223 -286.8 152.323C-289.656 146.917 -292.391 141.437 -295.001 135.886C-295.434 134.965 -296.531 134.569 -297.452 135C-297.322 135.279 -297.192 135.557 -297.062 135.836C-296.932 136.115 -296.802 136.393 -296.671 136.671C-294.048 142.248 -291.301 147.753 -288.432 153.185C-288.288 153.457 -288.144 153.729 -288 154C-287.856 154.272 -287.711 154.543 -287.566 154.815ZM-303.424 121.495C-302.485 121.103 -302.04 120.025 -302.43 119.085C-304.771 113.44 -306.986 107.73 -309.07 101.957C-309.416 101 -310.471 100.504 -311.428 100.847C-311.325 101.137 -311.222 101.426 -311.118 101.716C-311.014 102.005 -310.91 102.295 -310.806 102.584C-308.711 108.383 -306.486 114.121 -304.134 119.792C-304.017 120.076 -303.898 120.36 -303.78 120.644C-303.662 120.928 -303.543 121.211 -303.424 121.495ZM-316.12 86.8436C-315.149 86.5408 -314.606 85.5092 -314.907 84.5371C-316.711 78.7032 -318.385 72.8119 -319.925 66.8665C-320.18 65.8815 -321.184 65.2893 -322.169 65.542C-322.094 65.84 -322.018 66.138 -321.941 66.4358C-321.865 66.7337 -321.788 67.0315 -321.711 67.3291C-320.164 73.3022 -318.482 79.2211 -316.669 85.0823C-316.578 85.3761 -316.487 85.6697 -316.396 85.9632C-316.304 86.2568 -316.212 86.5503 -316.12 86.8436ZM-325.537 51.1697C-324.542 50.9585 -323.905 49.9817 -324.115 48.9859C-325.368 43.0157 -326.487 36.9961 -327.469 30.9305C-327.632 29.926 -328.577 29.2432 -329.581 29.4034C-329.533 29.7072 -329.485 30.011 -329.437 30.3146C-329.388 30.6183 -329.34 30.9219 -329.291 31.2254C-328.304 37.3192 -327.179 43.3668 -325.92 49.3649C-325.857 49.6659 -325.793 49.9668 -325.73 50.2675C-325.666 50.5684 -325.601 50.869 -325.537 51.1697ZM-331.603 14.7823C-330.593 14.664 -329.869 13.7502 -329.985 12.7393C-330.68 6.68368 -331.239 0.58659 -331.659 -5.54885C-331.729 -6.56403 -332.607 -7.33099 -333.622 -7.26379C-333.602 -6.95684 -333.582 -6.65001 -333.562 -6.34326C-333.542 -6.03637 -333.521 -5.72956 -333.5 -5.42284C-333.078 0.740838 -332.516 6.86608 -331.818 12.9498C-331.782 13.2553 -331.747 13.5608 -331.711 13.8661C-331.676 14.1716 -331.639 14.477 -331.603 14.7823ZM-334.293 -22.0095C-333.276 -22.0349 -332.472 -22.8786 -332.495 -23.8959C-332.564 -26.9589 -332.599 -30.0305 -332.599 -33.1103C-332.599 -36.19 -332.564 -39.2616 -332.495 -42.3245C-332.472 -43.3419 -333.276 -44.1855 -334.293 -44.2109C-334.302 -43.9036 -334.31 -43.5962 -334.317 -43.2887C-334.325 -42.9814 -334.332 -42.674 -334.339 -42.3665C-334.409 -39.2895 -334.444 -36.204 -334.444 -33.1103C-334.444 -30.0165 -334.409 -26.9309 -334.339 -23.8539C-334.332 -23.5464 -334.325 -23.239 -334.317 -22.9317C-334.31 -22.6242 -334.302 -22.3168 -334.293 -22.0095ZM-333.622 -58.9566C-332.607 -58.8894 -331.729 -59.6564 -331.659 -60.6716C-331.239 -66.807 -330.68 -72.9042 -329.985 -78.9598C-329.869 -79.9707 -330.593 -80.8845 -331.603 -81.0028C-331.639 -80.6975 -331.676 -80.3921 -331.711 -80.0867C-331.747 -79.7813 -331.782 -79.4759 -331.818 -79.1703C-332.516 -73.0866 -333.078 -66.9613 -333.5 -60.7976C-333.521 -60.4909 -333.542 -60.1841 -333.562 -59.8772C-333.582 -59.5705 -333.602 -59.2636 -333.622 -58.9566ZM-329.581 -95.624C-328.577 -95.4637 -327.632 -96.1466 -327.469 -97.151C-326.487 -103.217 -325.368 -109.236 -324.115 -115.206C-323.905 -116.202 -324.542 -117.179 -325.537 -117.39C-325.602 -117.09 -325.666 -116.789 -325.73 -116.488C-325.793 -116.187 -325.857 -115.886 -325.92 -115.585C-327.179 -109.587 -328.304 -103.54 -329.291 -97.4459C-329.34 -97.1424 -329.389 -96.8388 -329.437 -96.5351C-329.485 -96.2315 -329.533 -95.9278 -329.581 -95.624ZM-322.169 -131.763C-321.184 -131.51 -320.18 -132.102 -319.925 -133.087C-318.385 -139.032 -316.711 -144.924 -314.907 -150.758C-314.606 -151.73 -315.149 -152.761 -316.12 -153.064C-316.212 -152.771 -316.304 -152.477 -316.396 -152.184C-316.487 -151.89 -316.578 -151.597 -316.669 -151.303C-318.482 -145.442 -320.164 -139.523 -321.711 -133.55C-321.788 -133.252 -321.865 -132.954 -321.941 -132.656C-322.018 -132.359 -322.094 -132.061 -322.169 -131.763ZM-311.428 -167.067C-310.471 -166.724 -309.416 -167.221 -309.07 -168.178C-306.986 -173.95 -304.771 -179.661 -302.43 -185.306C-302.04 -186.246 -302.485 -187.324 -303.424 -187.715C-303.543 -187.432 -303.662 -187.148 -303.78 -186.864C-303.898 -186.581 -304.017 -186.297 -304.134 -186.013C-306.486 -180.341 -308.711 -174.604 -310.806 -168.804C-310.91 -168.515 -311.014 -168.226 -311.118 -167.936C-311.222 -167.647 -311.325 -167.357 -311.428 -167.067ZM-297.452 -201.22C-296.531 -200.79 -295.434 -201.186 -295.001 -202.107C-292.391 -207.657 -289.656 -213.137 -286.8 -218.544C-286.325 -219.444 -286.668 -220.558 -287.566 -221.035C-287.711 -220.764 -287.856 -220.493 -288 -220.221C-288.144 -219.949 -288.288 -219.678 -288.432 -219.406C-291.301 -213.974 -294.048 -208.468 -296.671 -202.892C-296.801 -202.614 -296.932 -202.335 -297.062 -202.057C-297.192 -201.778 -297.322 -201.499 -297.452 -201.22ZM-280.37 -233.928C-279.492 -233.414 -278.364 -233.707 -277.847 -234.584C-274.737 -239.866 -271.507 -245.07 -268.163 -250.193C-267.606 -251.045 -267.845 -252.186 -268.695 -252.744C-268.865 -252.487 -269.034 -252.23 -269.202 -251.973C-269.371 -251.716 -269.539 -251.459 -269.707 -251.201C-273.067 -246.055 -276.312 -240.827 -279.437 -235.52C-279.593 -235.255 -279.749 -234.99 -279.904 -234.725C-280.06 -234.459 -280.215 -234.194 -280.37 -233.928ZM-260.34 -264.918C-259.514 -264.325 -258.363 -264.512 -257.768 -265.338C-254.185 -270.309 -250.49 -275.194 -246.687 -279.989C-246.055 -280.786 -246.188 -281.944 -246.983 -282.578C-247.175 -282.338 -247.367 -282.098 -247.559 -281.857C-247.75 -281.617 -247.942 -281.376 -248.133 -281.135C-251.954 -276.318 -255.665 -271.411 -259.265 -266.417C-259.445 -266.167 -259.624 -265.918 -259.803 -265.668C-259.983 -265.418 -260.162 -265.168 -260.34 -264.918ZM-237.544 -293.932C-236.776 -293.266 -235.613 -293.347 -234.944 -294.115C-230.922 -298.734 -226.794 -303.259 -222.565 -307.686C-221.862 -308.422 -221.888 -309.588 -222.622 -310.292C-222.836 -310.071 -223.049 -309.849 -223.262 -309.627C-223.474 -309.405 -223.687 -309.183 -223.9 -308.961C-228.148 -304.513 -232.295 -299.967 -236.336 -295.326C-236.538 -295.095 -236.739 -294.862 -236.941 -294.63C-237.142 -294.398 -237.343 -294.165 -237.544 -293.932ZM-212.182 -320.732C-211.478 -319.998 -210.312 -319.973 -209.576 -320.676C-205.149 -324.904 -200.623 -329.032 -196.004 -333.055C-195.237 -333.723 -195.156 -334.886 -195.822 -335.655C-196.055 -335.454 -196.287 -335.253 -196.52 -335.051C-196.752 -334.85 -196.984 -334.648 -197.216 -334.446C-201.856 -330.405 -206.402 -326.258 -210.85 -322.01C-211.073 -321.797 -211.295 -321.585 -211.517 -321.372C-211.739 -321.159 -211.96 -320.946 -212.182 -320.732ZM-184.468 -345.093C-183.834 -344.298 -182.676 -344.165 -181.879 -344.797C-177.083 -348.601 -172.199 -352.296 -167.228 -355.878C-166.402 -356.473 -166.215 -357.624 -166.807 -358.45C-167.058 -358.272 -167.308 -358.093 -167.558 -357.914C-167.807 -357.734 -168.057 -357.555 -168.307 -357.375C-173.3 -353.776 -178.208 -350.064 -183.025 -346.243C-183.266 -346.052 -183.507 -345.861 -183.747 -345.669C-183.988 -345.477 -184.228 -345.285 -184.468 -345.093ZM-154.634 -366.805C-154.076 -365.955 -152.934 -365.717 -152.082 -366.273C-146.96 -369.617 -141.756 -372.847 -136.474 -375.958C-135.597 -376.474 -135.304 -377.603 -135.818 -378.48C-136.084 -378.325 -136.349 -378.17 -136.614 -378.015C-136.88 -377.859 -137.145 -377.703 -137.41 -377.547C-142.717 -374.422 -147.945 -371.178 -153.091 -367.818C-153.348 -367.65 -153.606 -367.481 -153.863 -367.312C-154.12 -367.144 -154.377 -366.975 -154.634 -366.805ZM-122.925 -385.677C-122.448 -384.778 -121.334 -384.435 -120.434 -384.911C-115.027 -387.766 -109.547 -390.501 -103.996 -393.111C-103.076 -393.544 -102.679 -394.641 -103.11 -395.562C-103.389 -395.433 -103.668 -395.303 -103.946 -395.172C-104.225 -395.042 -104.503 -394.912 -104.782 -394.781C-110.358 -392.159 -115.864 -389.411 -121.295 -386.542C-121.567 -386.398 -121.839 -386.255 -122.111 -386.11C-122.382 -385.966 -122.654 -385.821 -122.925 -385.677ZM-89.6051 -401.534C-89.2134 -400.595 -88.1357 -400.151 -87.1958 -400.54C-81.5507 -402.881 -75.8401 -405.096 -70.0674 -407.181C-69.1103 -407.526 -68.614 -408.581 -68.9572 -409.539C-69.247 -409.435 -69.5366 -409.332 -69.826 -409.228C-70.1155 -409.124 -70.4048 -409.02 -70.694 -408.916C-76.4937 -406.821 -82.2311 -404.596 -87.9025 -402.245C-88.1866 -402.127 -88.4705 -402.009 -88.7542 -401.89C-89.038 -401.772 -89.3217 -401.653 -89.6051 -401.534ZM-54.9539 -414.23C-54.6512 -413.259 -53.6194 -412.716 -52.6474 -413.017C-46.8135 -414.821 -40.9222 -416.495 -34.9769 -418.035C-33.9918 -418.29 -33.3995 -419.294 -33.6523 -420.28C-33.9504 -420.204 -34.2483 -420.128 -34.5461 -420.051C-34.844 -419.975 -35.1418 -419.898 -35.4395 -419.821C-41.4126 -418.274 -47.3314 -416.592 -53.1926 -414.779C-53.4864 -414.689 -53.7801 -414.597 -54.0736 -414.506C-54.3672 -414.414 -54.6606 -414.322 -54.9539 -414.23ZM-19.28 -423.647C-19.0688 -422.652 -18.092 -422.016 -17.0962 -422.225C-11.126 -423.478 -5.10641 -424.597 0.95921 -425.58C1.96367 -425.742 2.64654 -426.687 2.48626 -427.691C2.18244 -427.644 1.8787 -427.596 1.5751 -427.547C1.27139 -427.499 0.967796 -427.45 0.664311 -427.401C-5.42952 -426.414 -11.4771 -425.29 -17.4752 -424.03C-17.7762 -423.967 -18.0771 -423.904 -18.3778 -423.84C-18.6787 -423.776 -18.9794 -423.712 -19.28 -423.647ZM17.1074 -429.713C17.2257 -428.703 18.1394 -427.979 19.1504 -428.095C25.206 -428.79 31.3031 -429.349 37.4385 -429.769C38.4537 -429.839 39.2207 -430.717 39.1535 -431.732C38.8465 -431.712 38.5397 -431.692 38.2329 -431.672C37.9261 -431.652 37.6192 -431.631 37.3125 -431.61C31.1488 -431.188 25.0236 -430.626 18.9399 -429.928C18.6344 -429.893 18.3289 -429.857 18.0235 -429.822C17.7181 -429.786 17.4127 -429.75 17.1074 -429.713ZM53.8992 -432.403C53.9246 -431.387 54.7683 -430.582 55.7856 -430.605C58.8486 -430.675 61.9201 -430.71 65 -430.71C68.0797 -430.71 71.1513 -430.675 74.2142 -430.605C75.2315 -430.582 76.0752 -431.387 76.1006 -432.403C75.7933 -432.412 75.4859 -432.42 75.1784 -432.428C74.8711 -432.435 74.5637 -432.443 74.2562 -432.45C71.1792 -432.52 68.0937 -432.555 65 -432.555C61.9062 -432.555 58.8206 -432.52 55.7436 -432.45C55.4361 -432.443 55.1287 -432.435 54.8214 -432.428C54.5139 -432.42 54.2065 -432.412 53.8992 -432.403ZM90.8463 -431.732C90.7791 -430.717 91.5461 -429.839 92.5613 -429.769C98.6967 -429.349 104.794 -428.79 110.85 -428.095C111.86 -427.979 112.774 -428.703 112.892 -429.713C112.587 -429.75 112.282 -429.786 111.976 -429.822C111.671 -429.857 111.366 -429.893 111.06 -429.928C104.976 -430.626 98.851 -431.188 92.6873 -431.61C92.3806 -431.631 92.0738 -431.652 91.7669 -431.672C91.4601 -431.692 91.1533 -431.712 90.8463 -431.732ZM127.514 -427.691C127.353 -426.687 128.036 -425.742 129.041 -425.58C135.106 -424.597 141.126 -423.478 147.096 -422.225C148.092 -422.016 149.069 -422.652 149.28 -423.647C148.979 -423.712 148.679 -423.776 148.378 -423.84C148.077 -423.904 147.776 -423.967 147.475 -424.03C141.477 -425.29 135.429 -426.414 129.336 -427.401C129.032 -427.45 128.729 -427.499 128.425 -427.547C128.121 -427.596 127.817 -427.644 127.514 -427.691ZM163.652 -420.28C163.399 -419.294 163.992 -418.29 164.977 -418.035C170.922 -416.495 176.813 -414.821 182.647 -413.017C183.619 -412.716 184.651 -413.259 184.954 -414.23C184.661 -414.322 184.367 -414.414 184.073 -414.506C183.78 -414.597 183.486 -414.689 183.193 -414.779C177.331 -416.592 171.412 -418.274 165.439 -419.821C165.142 -419.898 164.844 -419.975 164.546 -420.051C164.248 -420.128 163.95 -420.204 163.652 -420.28ZM198.957 -409.539C198.614 -408.581 199.11 -407.526 200.067 -407.181C205.84 -405.096 211.551 -402.881 217.196 -400.54C218.136 -400.151 219.213 -400.595 219.605 -401.534C219.322 -401.653 219.038 -401.772 218.754 -401.89C218.47 -402.009 218.187 -402.127 217.902 -402.245C212.231 -404.596 206.494 -406.821 200.694 -408.916C200.405 -409.02 200.115 -409.124 199.826 -409.228C199.537 -409.332 199.247 -409.435 198.957 -409.539ZM233.11 -395.562C232.679 -394.641 233.076 -393.544 233.996 -393.111C239.547 -390.501 245.027 -387.766 250.434 -384.911C251.333 -384.435 252.448 -384.778 252.925 -385.677C252.654 -385.821 252.382 -385.966 252.111 -386.11C251.839 -386.255 251.567 -386.398 251.295 -386.542C245.864 -389.411 240.358 -392.159 234.781 -394.781C234.503 -394.912 234.225 -395.042 233.946 -395.172C233.668 -395.303 233.389 -395.433 233.11 -395.562ZM265.818 -378.48C265.304 -377.603 265.597 -376.474 266.473 -375.958C271.756 -372.847 276.96 -369.617 282.082 -366.273C282.934 -365.717 284.076 -365.955 284.633 -366.805C284.377 -366.975 284.12 -367.144 283.863 -367.312C283.606 -367.481 283.348 -367.65 283.091 -367.818C277.945 -371.178 272.717 -374.422 267.41 -377.547C267.145 -377.704 266.88 -377.859 266.614 -378.015C266.349 -378.17 266.083 -378.325 265.818 -378.48ZM296.807 -358.45C296.214 -357.624 296.402 -356.473 297.228 -355.878C302.199 -352.296 307.083 -348.601 311.878 -344.797C312.676 -344.165 313.834 -344.298 314.468 -345.093C314.228 -345.285 313.988 -345.477 313.747 -345.669C313.507 -345.861 313.266 -346.052 313.025 -346.243C308.208 -350.064 303.3 -353.776 298.306 -357.375C298.057 -357.555 297.807 -357.734 297.557 -357.914C297.308 -358.093 297.058 -358.272 296.807 -358.45ZM325.822 -335.655C325.156 -334.886 325.237 -333.723 326.004 -333.055C330.623 -329.032 335.148 -324.904 339.576 -320.676C340.312 -319.973 341.478 -319.998 342.182 -320.732C341.96 -320.946 341.739 -321.159 341.517 -321.372C341.295 -321.585 341.073 -321.797 340.85 -322.01C336.402 -326.258 331.856 -330.405 327.216 -334.446C326.984 -334.648 326.752 -334.85 326.52 -335.051C326.287 -335.253 326.055 -335.454 325.822 -335.655ZM352.622 -310.292C351.888 -309.588 351.862 -308.422 352.565 -307.686C356.794 -303.259 360.922 -298.734 364.944 -294.115C365.613 -293.347 366.776 -293.266 367.544 -293.932C367.343 -294.165 367.142 -294.398 366.941 -294.63C366.739 -294.862 366.538 -295.095 366.336 -295.326C362.294 -299.967 358.148 -304.513 353.899 -308.961C353.687 -309.183 353.474 -309.405 353.261 -309.627C353.049 -309.849 352.835 -310.071 352.622 -310.292ZM376.983 -282.578C376.187 -281.944 376.055 -280.786 376.687 -279.989C380.49 -275.194 384.185 -270.309 387.768 -265.338C388.363 -264.512 389.514 -264.325 390.34 -264.918C390.161 -265.168 389.983 -265.418 389.803 -265.668C389.624 -265.918 389.445 -266.167 389.265 -266.417C385.665 -271.411 381.953 -276.318 378.133 -281.135C377.942 -281.376 377.75 -281.617 377.559 -281.857C377.367 -282.098 377.175 -282.338 376.983 -282.578ZM398.695 -252.744C397.845 -252.186 397.606 -251.045 398.163 -250.193C401.507 -245.07 404.736 -239.866 407.847 -234.584C408.364 -233.707 409.492 -233.414 410.37 -233.928C410.215 -234.194 410.06 -234.459 409.904 -234.725C409.749 -234.99 409.593 -235.255 409.437 -235.52C406.312 -240.827 403.067 -246.055 399.707 -251.201C399.539 -251.459 399.371 -251.716 399.202 -251.973C399.033 -252.23 398.864 -252.487 398.695 -252.744ZM417.566 -221.035C416.668 -220.558 416.325 -219.444 416.8 -218.544C419.656 -213.137 422.391 -207.657 425.001 -202.107C425.434 -201.186 426.531 -200.79 427.452 -201.22C427.322 -201.499 427.192 -201.778 427.062 -202.057C426.932 -202.335 426.801 -202.614 426.671 -202.892C424.048 -208.468 421.301 -213.974 418.432 -219.406C418.288 -219.678 418.144 -219.949 418 -220.221C417.856 -220.493 417.711 -220.764 417.566 -221.035ZM433.424 -187.715C432.485 -187.324 432.04 -186.246 432.43 -185.306C434.771 -179.661 436.986 -173.95 439.07 -168.178C439.416 -167.221 440.471 -166.724 441.428 -167.067C441.325 -167.357 441.222 -167.647 441.118 -167.936C441.014 -168.226 440.91 -168.515 440.806 -168.804C438.711 -174.604 436.486 -180.341 434.134 -186.013C434.017 -186.297 433.898 -186.581 433.78 -186.864C433.661 -187.148 433.543 -187.432 433.424 -187.715ZM446.12 -153.064C445.149 -152.761 444.606 -151.73 444.907 -150.758C446.711 -144.924 448.385 -139.032 449.925 -133.087C450.18 -132.102 451.184 -131.51 452.169 -131.763C452.093 -132.061 452.017 -132.359 451.941 -132.656C451.865 -132.954 451.788 -133.252 451.711 -133.55C450.164 -139.523 448.482 -145.442 446.669 -151.303C446.578 -151.597 446.487 -151.89 446.396 -152.184C446.304 -152.477 446.212 -152.771 446.12 -153.064ZM455.537 -117.39C454.542 -117.179 453.905 -116.202 454.114 -115.206C455.368 -109.236 456.487 -103.217 457.469 -97.151C457.632 -96.1466 458.577 -95.4637 459.581 -95.624C459.533 -95.9278 459.485 -96.2315 459.437 -96.5351C459.388 -96.8388 459.34 -97.1424 459.29 -97.4459C458.304 -103.54 457.179 -109.587 455.92 -115.585C455.857 -115.886 455.793 -116.187 455.73 -116.488C455.666 -116.789 455.601 -117.09 455.537 -117.39ZM463.622 -58.9568C463.602 -59.2637 463.582 -59.5705 463.562 -59.8773C463.541 -60.1842 463.521 -60.491 463.5 -60.7977C463.078 -66.9614 462.516 -73.0867 461.818 -79.1703C461.782 -79.4759 461.747 -79.7813 461.711 -80.0867C461.675 -80.3922 461.639 -80.6975 461.603 -81.0028C460.593 -80.8845 459.868 -79.9708 459.984 -78.9599C460.68 -72.9042 461.239 -66.8071 461.659 -60.6717C461.729 -59.6565 462.607 -58.8896 463.622 -58.9568Z" fill="white" fill-opacity="0.5"/>
<path fill-rule="evenodd" clip-rule="evenodd" d="M64.9998 94.1952C135.309 94.1952 192.305 37.1986 192.305 -33.1104C192.305 -103.419 135.309 -160.416 64.9998 -160.416C-5.30912 -160.416 -62.3058 -103.419 -62.3058 -33.1104C-62.3058 37.1986 -5.30912 94.1952 64.9998 94.1952ZM64.9998 186.446C186.257 186.446 284.556 88.1471 284.556 -33.1104C284.556 -154.368 186.257 -252.666 64.9998 -252.666C-56.2576 -252.666 -154.556 -154.368 -154.556 -33.1104C-154.556 88.1471 -56.2576 186.446 64.9998 186.446Z" fill="white" fill-opacity="0.2"/>
</svg>
