<svg width="105" height="40" viewBox="0 0 105 40" fill="none" xmlns="http://www.w3.org/2000/svg">
<path d="M2.20561 4.13183C3.42373 4.13183 4.41121 3.20687 4.41121 2.06588C4.41121 0.924898 3.42373 0 2.20561 0C0.987488 0 0 0.924898 0 2.06588C0 3.20687 0.987488 4.13183 2.20561 4.13183Z" fill="#3C387F"/>
<path d="M16.5953 4.13183C17.8134 4.13183 18.8009 3.20687 18.8009 2.06588C18.8009 0.924898 17.8134 0 16.5953 0C15.3772 0 14.3897 0.924898 14.3897 2.06588C14.3897 3.20687 15.3772 4.13183 16.5953 4.13183Z" fill="#3C387F"/>
<path d="M33.1852 2.06588C33.1852 3.20365 32.1996 4.13183 30.9796 4.13183C29.7596 4.13183 28.774 3.20864 28.774 2.06588C28.774 0.928121 29.7596 0 30.9796 0C32.1996 0 33.1852 0.923131 33.1852 2.06588Z" fill="#3C387F"/>
<path d="M45.3746 4.13183C46.5928 4.13183 47.5802 3.20687 47.5802 2.06588C47.5802 0.924898 46.5928 0 45.3746 0C44.1565 0 43.169 0.924898 43.169 2.06588C43.169 3.20687 44.1565 4.13183 45.3746 4.13183Z" fill="#3C387F"/>
<path d="M2.20561 15.8289C3.42373 15.8289 4.41121 14.9039 4.41121 13.7629C4.41121 12.6219 3.42373 11.697 2.20561 11.697C0.987488 11.697 0 12.6219 0 13.7629C0 14.9039 0.987488 15.8289 2.20561 15.8289Z" fill="#3C387F"/>
<path d="M16.5953 15.8289C17.8134 15.8289 18.8009 14.9039 18.8009 13.7629C18.8009 12.6219 17.8134 11.697 16.5953 11.697C15.3772 11.697 14.3897 12.6219 14.3897 13.7629C14.3897 14.9039 15.3772 15.8289 16.5953 15.8289Z" fill="#3C387F"/>
<path d="M33.1852 13.7629C33.1852 14.9007 32.1996 15.8289 30.9796 15.8289C29.7596 15.8289 28.774 14.9057 28.774 13.7629C28.774 12.6252 29.7596 11.697 30.9796 11.697C32.1996 11.697 33.1852 12.6252 33.1852 13.7629Z" fill="#3C387F"/>
<path d="M45.3746 15.8289C46.5928 15.8289 47.5802 14.9039 47.5802 13.7629C47.5802 12.6219 46.5928 11.697 45.3746 11.697C44.1565 11.697 43.169 12.6219 43.169 13.7629C43.169 14.9039 44.1565 15.8289 45.3746 15.8289Z" fill="#3C387F"/>
<path d="M2.20561 27.5308C3.42373 27.5308 4.41121 26.6059 4.41121 25.4649C4.41121 24.3239 3.42373 23.3989 2.20561 23.3989C0.987488 23.3989 0 24.3239 0 25.4649C0 26.6059 0.987488 27.5308 2.20561 27.5308Z" fill="#3C387F"/>
<path d="M16.5953 27.5308C17.8134 27.5308 18.8009 26.6059 18.8009 25.4649C18.8009 24.3239 17.8134 23.3989 16.5953 23.3989C15.3772 23.3989 14.3897 24.3239 14.3897 25.4649C14.3897 26.6059 15.3772 27.5308 16.5953 27.5308Z" fill="#3C387F"/>
<path d="M33.1852 25.4649C33.1852 26.6026 32.1996 27.5308 30.9796 27.5308C29.7596 27.5308 28.774 26.6076 28.774 25.4649C28.774 24.3221 29.7596 23.3989 30.9796 23.3989C32.1996 23.3989 33.1852 24.3221 33.1852 25.4649Z" fill="#3C387F"/>
<path d="M45.3746 27.5308C46.5928 27.5308 47.5802 26.6059 47.5802 25.4649C47.5802 24.3239 46.5928 23.3989 45.3746 23.3989C44.1565 23.3989 43.169 24.3239 43.169 25.4649C43.169 26.6059 44.1565 27.5308 45.3746 27.5308Z" fill="#3C387F"/>
<path d="M2.20561 39.2278C3.42373 39.2278 4.41121 38.3029 4.41121 37.1619C4.41121 36.0209 3.42373 35.096 2.20561 35.096C0.987488 35.096 0 36.0209 0 37.1619C0 38.3029 0.987488 39.2278 2.20561 39.2278Z" fill="#3C387F"/>
<path d="M16.5953 39.2278C17.8134 39.2278 18.8009 38.3029 18.8009 37.1619C18.8009 36.0209 17.8134 35.096 16.5953 35.096C15.3772 35.096 14.3897 36.0209 14.3897 37.1619C14.3897 38.3029 15.3772 39.2278 16.5953 39.2278Z" fill="#3C387F"/>
<path d="M33.1852 37.1619C33.1852 38.2997 32.1996 39.2278 30.9796 39.2278C29.7596 39.2278 28.774 38.3047 28.774 37.1619C28.774 36.0241 29.7596 35.096 30.9796 35.096C32.1996 35.096 33.1852 36.0241 33.1852 37.1619Z" fill="#3C387F"/>
<path d="M45.3746 39.2278C46.5928 39.2278 47.5802 38.3029 47.5802 37.1619C47.5802 36.0209 46.5928 35.096 45.3746 35.096C44.1565 35.096 43.169 36.0209 43.169 37.1619C43.169 38.3029 44.1565 39.2278 45.3746 39.2278Z" fill="#3C387F"/>
<path d="M59.0698 4.13183C60.2879 4.13183 61.2754 3.20687 61.2754 2.06588C61.2754 0.924898 60.2879 0 59.0698 0C57.8517 0 56.8642 0.924898 56.8642 2.06588C56.8642 3.20687 57.8517 4.13183 59.0698 4.13183Z" fill="#3C387F"/>
<path d="M73.4595 4.13183C74.6776 4.13183 75.6651 3.20687 75.6651 2.06588C75.6651 0.924898 74.6776 0 73.4595 0C72.2414 0 71.2539 0.924898 71.2539 2.06588C71.2539 3.20687 72.2414 4.13183 73.4595 4.13183Z" fill="#3C387F"/>
<path d="M90.0494 2.06588C90.0494 3.20365 89.0638 4.13183 87.8438 4.13183C86.6238 4.13183 85.6382 3.20864 85.6382 2.06588C85.6382 0.928121 86.6238 0 87.8438 0C89.0638 0 90.0494 0.923131 90.0494 2.06588Z" fill="#3C387F"/>
<path d="M102.239 4.13183C103.457 4.13183 104.444 3.20687 104.444 2.06588C104.444 0.924898 103.457 0 102.239 0C101.021 0 100.033 0.924898 100.033 2.06588C100.033 3.20687 101.021 4.13183 102.239 4.13183Z" fill="#3C387F"/>
<path d="M59.0698 15.8289C60.2879 15.8289 61.2754 14.9039 61.2754 13.7629C61.2754 12.6219 60.2879 11.697 59.0698 11.697C57.8517 11.697 56.8642 12.6219 56.8642 13.7629C56.8642 14.9039 57.8517 15.8289 59.0698 15.8289Z" fill="#3C387F"/>
<path d="M73.4595 15.8289C74.6776 15.8289 75.6651 14.9039 75.6651 13.7629C75.6651 12.6219 74.6776 11.697 73.4595 11.697C72.2414 11.697 71.2539 12.6219 71.2539 13.7629C71.2539 14.9039 72.2414 15.8289 73.4595 15.8289Z" fill="#3C387F"/>
<path d="M90.0494 13.7629C90.0494 14.9007 89.0638 15.8289 87.8438 15.8289C86.6238 15.8289 85.6382 14.9057 85.6382 13.7629C85.6382 12.6252 86.6238 11.697 87.8438 11.697C89.0638 11.697 90.0494 12.6252 90.0494 13.7629Z" fill="#3C387F"/>
<path d="M102.239 15.8289C103.457 15.8289 104.444 14.9039 104.444 13.7629C104.444 12.6219 103.457 11.697 102.239 11.697C101.021 11.697 100.033 12.6219 100.033 13.7629C100.033 14.9039 101.021 15.8289 102.239 15.8289Z" fill="#3C387F"/>
<path d="M59.0698 27.5308C60.2879 27.5308 61.2754 26.6059 61.2754 25.4649C61.2754 24.3239 60.2879 23.3989 59.0698 23.3989C57.8517 23.3989 56.8642 24.3239 56.8642 25.4649C56.8642 26.6059 57.8517 27.5308 59.0698 27.5308Z" fill="#3C387F"/>
<path d="M73.4595 27.5308C74.6776 27.5308 75.6651 26.6059 75.6651 25.4649C75.6651 24.3239 74.6776 23.3989 73.4595 23.3989C72.2414 23.3989 71.2539 24.3239 71.2539 25.4649C71.2539 26.6059 72.2414 27.5308 73.4595 27.5308Z" fill="#3C387F"/>
<path d="M90.0494 25.4649C90.0494 26.6026 89.0638 27.5308 87.8438 27.5308C86.6238 27.5308 85.6382 26.6076 85.6382 25.4649C85.6382 24.3221 86.6238 23.3989 87.8438 23.3989C89.0638 23.3989 90.0494 24.3221 90.0494 25.4649Z" fill="#3C387F"/>
<path d="M102.239 27.5308C103.457 27.5308 104.444 26.6059 104.444 25.4649C104.444 24.3239 103.457 23.3989 102.239 23.3989C101.021 23.3989 100.033 24.3239 100.033 25.4649C100.033 26.6059 101.021 27.5308 102.239 27.5308Z" fill="#3C387F"/>
<path d="M59.0698 39.2278C60.2879 39.2278 61.2754 38.3029 61.2754 37.1619C61.2754 36.0209 60.2879 35.096 59.0698 35.096C57.8517 35.096 56.8642 36.0209 56.8642 37.1619C56.8642 38.3029 57.8517 39.2278 59.0698 39.2278Z" fill="#3C387F"/>
<path d="M73.4595 39.2278C74.6776 39.2278 75.6651 38.3029 75.6651 37.1619C75.6651 36.0209 74.6776 35.096 73.4595 35.096C72.2414 35.096 71.2539 36.0209 71.2539 37.1619C71.2539 38.3029 72.2414 39.2278 73.4595 39.2278Z" fill="#3C387F"/>
<path d="M90.0494 37.1619C90.0494 38.2997 89.0638 39.2278 87.8438 39.2278C86.6238 39.2278 85.6382 38.3047 85.6382 37.1619C85.6382 36.0241 86.6238 35.096 87.8438 35.096C89.0638 35.096 90.0494 36.0241 90.0494 37.1619Z" fill="#3C387F"/>
<path d="M102.239 39.2278C103.457 39.2278 104.444 38.3029 104.444 37.1619C104.444 36.0209 103.457 35.096 102.239 35.096C101.021 35.096 100.033 36.0209 100.033 37.1619C100.033 38.3029 101.021 39.2278 102.239 39.2278Z" fill="#3C387F"/>
</svg>
