<svg width="90" height="90" viewBox="0 0 90 90" fill="none" xmlns="http://www.w3.org/2000/svg">
<path d="M34.1578 24.7078H38.1656V61.2703C38.1667 61.6429 38.3152 62 38.5787 62.2635C38.8422 62.5269 39.1992 62.6755 39.5719 62.6766H50.4281C50.8007 62.6755 51.1578 62.5269 51.4212 62.2635C51.6847 62 51.8332 61.6429 51.8344 61.2703V24.7078H55.8422C56.097 24.71 56.3475 24.6427 56.567 24.5133C56.7865 24.3838 56.9666 24.1971 57.088 23.9731C57.2094 23.749 57.2675 23.4962 57.2562 23.2416C57.2448 22.9871 57.1643 22.7404 57.0234 22.5281L46.1672 6.25782C46.0326 6.07474 45.8568 5.92588 45.654 5.82329C45.4513 5.72069 45.2272 5.66724 45 5.66724C44.7727 5.66724 44.5487 5.72069 44.3459 5.82329C44.1432 5.92588 43.9674 6.07474 43.8328 6.25782L32.9766 22.5281C32.8401 22.7413 32.7631 22.9872 32.7539 23.2402C32.7446 23.4931 32.8033 23.744 32.924 23.9666C33.0446 24.1891 33.2226 24.3753 33.4397 24.5057C33.6567 24.636 33.9046 24.7059 34.1578 24.7078Z" fill="#1053C1"/>
<path d="M80.5775 28.1238C80.417 27.7873 80.1295 27.5284 79.7782 27.4037C79.4268 27.2791 79.0404 27.299 78.7037 27.459C78.367 27.6191 78.1077 27.9063 77.9826 28.2574C77.8574 28.6086 77.8768 28.9951 78.0364 29.3319C88.7856 50.7554 73.9937 78.2608 50.2214 81.1847C21.8321 85.602 -0.656156 55.1741 11.9624 29.3324C12.1145 28.9967 12.1288 28.6148 12.0022 28.2687C11.8756 27.9226 11.6183 27.64 11.2856 27.4816C10.9528 27.3233 10.5712 27.3018 10.2228 27.4218C9.87436 27.5418 9.58695 27.7938 9.42234 28.1235C-3.15744 53.5706 16.6637 84.788 44.9997 84.3752C55.4255 84.3199 65.4086 80.1537 72.7809 72.7814C80.1532 65.4091 84.3194 55.426 84.3747 45.0002C84.3877 39.1615 83.0901 33.3943 80.5775 28.1238Z" fill="#1053C1"/>
<path d="M53.0859 45.0002C53.8288 63.0599 79.5709 63.0546 80.3109 45.0002C80.3109 41.3899 78.8767 37.9275 76.3239 35.3747C73.7711 32.8218 70.3087 31.3877 66.6984 31.3877C63.0881 31.3877 59.6257 32.8219 57.0729 35.3747C54.5201 37.9276 53.0859 41.39 53.0859 45.0002ZM66.6984 46.4065C65.655 46.4076 64.6453 46.0376 63.8496 45.3627C63.0539 44.6877 62.5242 43.7518 62.3551 42.7222C62.186 41.6926 62.3886 40.6364 62.9267 39.7424C63.4648 38.8485 64.3032 38.175 65.2922 37.8424V36.0143C65.299 35.6458 65.4501 35.2948 65.7131 35.0366C65.9761 34.7784 66.3299 34.6338 66.6985 34.6338C67.067 34.6338 67.4208 34.7785 67.6838 35.0366C67.9468 35.2948 68.0979 35.6459 68.1047 36.0144V37.8424C68.9783 38.1331 69.738 38.6918 70.2758 39.4391C70.8135 40.1864 71.1019 41.0842 71.1 42.0049C71.0926 42.373 70.9412 42.7235 70.6783 42.9812C70.4154 43.239 70.0619 43.3833 69.6937 43.3833C69.3255 43.3833 68.9721 43.2389 68.7091 42.9812C68.4462 42.7235 68.2949 42.3729 68.2875 42.0048C68.2875 41.6905 68.1943 41.3833 68.0196 41.122C67.845 40.8607 67.5968 40.6571 67.3065 40.5368C67.0161 40.4165 66.6966 40.3851 66.3884 40.4464C66.0801 40.5077 65.797 40.6591 65.5748 40.8813C65.3525 41.1036 65.2012 41.3867 65.1399 41.695C65.0786 42.0032 65.1101 42.3227 65.2303 42.6131C65.3506 42.9034 65.5543 43.1516 65.8156 43.3262C66.0769 43.5008 66.3842 43.594 66.6984 43.594C67.7341 43.6066 68.7322 43.9835 69.5176 44.6588C70.303 45.334 70.8255 46.2642 70.9933 47.2863C71.1611 48.3084 70.9635 49.3569 70.4352 50.2477C69.907 51.1386 69.0818 51.815 68.1045 52.1581L68.1047 53.9862C68.1047 54.3591 67.9565 54.7168 67.6928 54.9805C67.4291 55.2443 67.0714 55.3924 66.6984 55.3924C66.3255 55.3924 65.9678 55.2443 65.7041 54.9805C65.4403 54.7168 65.2922 54.3591 65.2922 53.9862V52.1581C64.4186 51.8674 63.6588 51.3087 63.1211 50.5614C62.5833 49.8141 62.2949 48.9162 62.2969 47.9956C62.2969 47.6226 62.445 47.2649 62.7088 47.0012C62.9725 46.7375 63.3302 46.5893 63.7031 46.5893C64.0761 46.5893 64.4338 46.7375 64.6975 47.0012C64.9612 47.2649 65.1094 47.6226 65.1094 47.9956C65.1094 48.3098 65.2026 48.6171 65.3772 48.8784C65.5518 49.1397 65.8 49.3434 66.0903 49.4637C66.3807 49.5839 66.7002 49.6154 67.0084 49.5541C67.3167 49.4928 67.5998 49.3414 67.8221 49.1192C68.0443 48.897 68.1957 48.6138 68.257 48.3056C68.3183 47.9973 68.2868 47.6778 68.1665 47.3874C68.0463 47.0971 67.8426 46.8489 67.5813 46.6743C67.32 46.4997 67.0127 46.4065 66.6984 46.4065Z" fill="#1053C1"/>
<path d="M36.9142 45.0002C36.9142 41.3899 35.48 37.9275 32.9272 35.3747C30.3743 32.8218 26.9119 31.3877 23.3017 31.3877C19.6914 31.3877 16.229 32.8219 13.6762 35.3747C11.1234 37.9276 9.6892 41.39 9.68921 45.0002C10.432 63.0599 36.1741 63.0546 36.9142 45.0002ZM23.3017 46.4065C22.2661 46.3938 21.268 46.0168 20.4827 45.3416C19.6973 44.6664 19.1749 43.7361 19.0071 42.7141C18.8393 41.6921 19.0369 40.6437 19.5651 39.7528C20.0933 38.8619 20.9184 38.1855 21.8956 37.8424L21.8955 36.0143C21.9023 35.6458 22.0534 35.2948 22.3164 35.0366C22.5794 34.7784 22.9332 34.6338 23.3018 34.6338C23.6703 34.6338 24.0241 34.7785 24.2871 35.0366C24.55 35.2948 24.7012 35.6459 24.708 36.0144V37.8424C25.5816 38.1331 26.3413 38.6918 26.879 39.4391C27.4168 40.1864 27.7052 41.0842 27.7033 42.0049C27.6961 42.3731 27.5448 42.7238 27.2818 42.9817C27.0189 43.2396 26.6653 43.384 26.297 43.384C25.9287 43.384 25.5751 43.2395 25.3122 42.9816C25.0492 42.7238 24.8979 42.373 24.8908 42.0048C24.8908 41.6905 24.7975 41.3833 24.6229 41.122C24.4483 40.8607 24.2001 40.6571 23.9098 40.5368C23.6194 40.4165 23.2999 40.3851 22.9916 40.4464C22.6834 40.5077 22.4003 40.6591 22.178 40.8813C21.9558 41.1036 21.8045 41.3867 21.7432 41.695C21.6819 42.0032 21.7133 42.3227 21.8336 42.6131C21.9539 42.9034 22.1576 43.1516 22.4189 43.3262C22.6802 43.5008 22.9874 43.594 23.3017 43.594C24.3374 43.6066 25.3355 43.9835 26.1209 44.6588C26.9063 45.334 27.4288 46.2642 27.5966 47.2863C27.7644 48.3084 27.5668 49.3569 27.0385 50.2477C26.5103 51.1386 25.6851 51.815 24.7078 52.1581L24.708 53.9862C24.7012 54.3546 24.55 54.7057 24.287 54.9639C24.024 55.2221 23.6702 55.3667 23.3017 55.3667C22.9331 55.3667 22.5793 55.222 22.3164 54.9638C22.0534 54.7056 21.9022 54.3546 21.8955 53.9861V52.158C21.0218 51.8673 20.2621 51.3086 19.7244 50.5613C19.1866 49.814 18.8982 48.9162 18.9001 47.9955C18.9075 47.6274 19.0589 47.2768 19.3219 47.0191C19.5848 46.7614 19.9383 46.6171 20.3064 46.6171C20.6746 46.6171 21.0281 46.7615 21.291 47.0192C21.5539 47.2769 21.7053 47.6275 21.7126 47.9956C21.7126 48.3098 21.8058 48.6171 21.9805 48.8784C22.1551 49.1397 22.4032 49.3434 22.6936 49.4637C22.984 49.5839 23.3035 49.6154 23.6117 49.5541C23.92 49.4928 24.2031 49.3414 24.4254 49.1192C24.6476 48.8969 24.7989 48.6138 24.8602 48.3056C24.9216 47.9973 24.8901 47.6778 24.7698 47.3874C24.6495 47.0971 24.4459 46.8489 24.1845 46.6743C23.9232 46.4997 23.616 46.4065 23.3017 46.4065Z" fill="#1053C1"/>
<path d="M61.0318 66.375C56.3896 69.8035 50.7705 71.6536 44.9994 71.6537C39.2283 71.6537 33.6092 69.8038 28.9669 66.3754C28.6681 66.1602 28.2968 66.0709 27.9329 66.1265C27.5689 66.1822 27.2413 66.3783 27.0204 66.6729C26.7996 66.9675 26.7031 67.337 26.7517 67.702C26.8003 68.0669 26.9902 68.3983 27.2804 68.6248C32.3921 72.4588 38.6095 74.5313 44.9993 74.5313C51.389 74.5313 57.6064 72.4588 62.7181 68.6248C63.0081 68.3982 63.1977 68.0669 63.2462 67.7021C63.2947 67.3373 63.1982 66.968 62.9775 66.6735C62.7567 66.379 62.4294 66.1828 62.0656 66.127C61.7018 66.0712 61.3307 66.1602 61.0318 66.375Z" fill="#1053C1"/>
</svg>
