<svg width="90" height="90" viewBox="0 0 90 90" fill="none" xmlns="http://www.w3.org/2000/svg">
<path d="M73.9317 47.6478C73.1342 46.563 72.1127 45.6624 70.9366 45.0071C69.7604 44.3517 68.457 43.957 67.1149 43.8496C65.7728 43.7422 64.4232 43.9247 63.1578 44.3848C61.8925 44.8448 60.7408 45.5716 59.7809 46.5158L52.4648 53.8317C52.3339 53.9629 52.1784 54.067 52.0072 54.1381C51.836 54.2091 51.6525 54.2457 51.4672 54.2457C51.2819 54.2457 51.0984 54.2091 50.9272 54.1381C50.756 54.067 50.6005 53.9629 50.4696 53.8317C49.1112 52.4732 35.8096 39.1857 34.8471 38.2093C34.2451 37.6296 33.4394 37.3095 32.6036 37.318C31.7679 37.3266 30.9689 37.6631 30.3789 38.255C29.7888 38.8469 29.4548 39.6469 29.4489 40.4827C29.443 41.3185 29.7656 42.1232 30.3473 42.7234L31.2386 43.6149C35.951 48.3271 48.4037 60.7798 52.946 65.3222C53.2039 65.5885 53.347 65.9454 53.3446 66.3161C53.3423 66.6868 53.1946 67.0418 52.9334 67.3049C52.6722 67.5679 52.3183 67.7181 51.9476 67.7231C51.5769 67.7281 51.2191 67.5875 50.9509 67.3315L45.0356 61.4166C44.078 62.6751 43.4091 64.1289 43.0765 65.675C42.7438 67.221 42.7555 68.8213 43.1107 70.3623C43.4659 71.9033 44.156 73.3472 45.1318 74.5916C46.1077 75.836 47.3455 76.8503 48.7574 77.5626L64.1537 83.7182L84.3748 63.4967L73.9317 47.6478Z" fill="#1053C1"/>
<path d="M36.857 36.2136L39.503 38.8597C50.8474 26.5864 41.7614 6.16046 25.0406 6.28474C-0.850547 7.37775 -0.843292 44.2233 25.0409 45.3124C26.2377 45.313 27.4318 45.1993 28.6069 44.9728C28.0228 44.4459 27.5386 43.818 27.1777 43.119C26.5705 41.8383 26.433 40.3849 26.7894 39.013C27.1458 37.6412 27.9734 36.4384 29.1272 35.6153C30.281 34.7921 31.6876 34.4009 33.1007 34.5103C34.5139 34.6197 35.8435 35.2226 36.857 36.2136ZM23.4559 31.9824C23.1872 32.2447 22.8267 32.3915 22.4512 32.3915C22.0758 32.3915 21.7152 32.2447 21.4466 31.9824L16.2675 26.7891C16.0113 26.5229 15.8697 26.1667 15.8732 25.7972C15.8767 25.4276 16.0251 25.0742 16.2864 24.8129C16.5477 24.5516 16.9011 24.4032 17.2707 24.3996C17.6402 24.3961 17.9964 24.5377 18.2627 24.7939L22.4512 28.9825L31.8334 19.6005C32.1015 19.3445 32.4594 19.2039 32.8301 19.2088C33.2009 19.2138 33.5549 19.3639 33.8161 19.627C34.0773 19.8901 34.225 20.2452 34.2273 20.6159C34.2296 20.9867 34.0864 21.3436 33.8285 21.6099L23.4559 31.9824Z" fill="#1053C1"/>
</svg>
