<svg width="152" height="22" viewBox="0 0 152 22" fill="none" xmlns="http://www.w3.org/2000/svg">
<path d="M133.699 18.6965V21.1227L127.894 14.6551L122.088 21.1227L116.283 14.6551L110.477 21.1227L104.672 14.6551L98.8662 21.1227L93.0607 14.6551L87.2552 21.1227L81.4497 14.6551L75.6442 21.1227L69.8348 14.6551L64.0332 21.1227L58.2277 14.6551L52.4183 21.1227L46.6128 14.6551L40.8073 21.1227L35.0019 14.6551L29.1964 21.1227L23.3909 14.6551L17.5854 21.1227L11.7799 14.6551L5.97439 21.1227L0.164973 14.6551L0 14.8388V12.4126L0.164973 12.2289L5.97047 18.6999L11.776 12.2289L17.5814 18.6999L23.3869 12.2289L29.1924 18.6999L34.9979 12.2289L40.8034 18.6999L46.6089 12.2289L52.4144 18.6999L58.2199 12.2289L64.0254 18.6999L69.8309 12.2289L75.6403 18.6999L81.4458 12.2289L87.2513 18.6999L93.0568 12.2289L98.8623 18.6999L104.668 12.2289L110.473 18.6999L116.279 12.2289L122.088 18.6999L127.894 12.2289L133.699 18.6999V18.6965Z" fill="#DADADA"/>
<path d="M151.111 0V2.42968L145.311 8.89376L139.507 2.42621L133.704 8.89376L127.9 2.42621L122.096 8.89376L116.292 2.42621L110.488 8.89376L104.685 2.42621L98.8808 8.89376L93.077 2.42621L87.2732 8.89376L81.4654 2.42621L75.6616 8.89376L69.8578 2.42621L64.054 8.89376L58.2502 2.42621L52.4464 8.89376L46.6426 2.42621L40.8349 8.89376L35.0311 2.42621L29.2273 8.89376V6.46755L35.0311 0L40.8349 6.46755L46.6387 0L52.4425 6.46755L58.2463 0L64.0501 6.46755L69.8539 0L75.6577 6.46755L81.4615 0L87.2692 6.46755L93.0691 0L98.8769 6.46755L104.681 0L110.484 6.46755L116.288 0L122.092 6.46755L127.896 0L133.7 6.46755L139.503 0L145.307 6.46755L151.111 0Z" fill="#DADADA"/>
</svg>
