<svg width="90" height="90" viewBox="0 0 90 90" fill="none" xmlns="http://www.w3.org/2000/svg">
<path d="M42.1875 19.6875H48.0234C49.142 19.6866 50.2146 19.2418 51.0056 18.4509C51.7965 17.6599 52.2413 16.5874 52.2422 15.4688V9.84375C52.2413 8.72514 51.7965 7.6526 51.0056 6.86162C50.2146 6.07064 49.1421 5.62588 48.0234 5.625H42.1875C41.0696 5.62826 39.9985 6.07378 39.208 6.86425C38.4175 7.65471 37.972 8.72587 37.9688 9.84375V15.4688C37.972 16.5866 38.4176 17.6578 39.208 18.4482C39.9985 19.2387 41.0696 19.6842 42.1875 19.6875Z" fill="#1053C1"/>
<path d="M15.4688 37.7573H9.84375C7.5138 37.7573 5.625 39.6461 5.625 41.9761V47.812C5.625 50.142 7.5138 52.0308 9.84375 52.0308H15.4688C17.7987 52.0308 19.6875 50.142 19.6875 47.812V41.9761C19.6875 39.6461 17.7987 37.7573 15.4688 37.7573Z" fill="#1053C1"/>
<path d="M80.1562 37.9688H74.5312C73.4134 37.972 72.3422 38.4175 71.5517 39.208C70.7613 39.9985 70.3158 41.0696 70.3125 42.1875V48.0234C70.3134 49.1421 70.7581 50.2146 71.5491 51.0056C72.3401 51.7966 73.4126 52.2413 74.5312 52.2422H80.1562C81.2749 52.2413 82.3474 51.7966 83.1384 51.0056C83.9294 50.2146 84.3741 49.1421 84.375 48.0234V42.1875C84.3717 41.0696 83.9262 39.9985 83.1358 39.208C82.3453 38.4175 81.2741 37.972 80.1562 37.9688Z" fill="#1053C1"/>
<path d="M45.0026 70.0734C48.948 70.0734 52.1464 66.875 52.1464 62.9296C52.1464 58.9843 48.948 55.7859 45.0026 55.7859C41.0573 55.7859 37.8589 58.9843 37.8589 62.9296C37.8589 66.875 41.0573 70.0734 45.0026 70.0734Z" fill="#1053C1"/>
<path d="M45 50.625C41.6624 50.625 38.3998 51.6147 35.6248 53.469C32.8497 55.3232 30.6868 57.9587 29.4095 61.0422C28.1323 64.1257 27.7981 67.5187 28.4493 70.7921C29.1004 74.0656 30.7076 77.0724 33.0676 79.4324C35.4276 81.7924 38.4344 83.3996 41.7079 84.0508C44.9813 84.7019 48.3743 84.3677 51.4578 83.0905C54.5413 81.8132 57.1768 79.6503 59.0311 76.8752C60.8853 74.1002 61.875 70.8376 61.875 67.5C61.8715 63.0256 60.0924 58.7354 56.9285 55.5715C53.7646 52.4076 49.4744 50.6285 45 50.625ZM56.25 75.9234V75.2344C56.2504 73.9855 55.9565 72.754 55.3921 71.6399C54.8277 70.5258 54.0087 69.5604 53.0016 68.8219C52.0817 70.0811 50.8776 71.1055 49.4872 71.8117C48.0969 72.5178 46.5594 72.8859 45 72.8859C43.4406 72.8859 41.9031 72.5178 40.5128 71.8117C39.1224 71.1055 37.9183 70.0811 36.9984 68.8219C35.9913 69.5604 35.1723 70.5258 34.6079 71.6399C34.0435 72.754 33.7496 73.9855 33.75 75.2344V75.9234C31.9178 73.4981 30.93 70.5396 30.9375 67.5C30.9375 63.7704 32.4191 60.1935 35.0563 57.5563C37.6935 54.9191 41.2704 53.4375 45 53.4375C48.7296 53.4375 52.3065 54.9191 54.9437 57.5563C57.5809 60.1935 59.0625 63.7704 59.0625 67.5C59.07 70.5396 58.0822 73.4981 56.25 75.9234Z" fill="#1053C1"/>
<path d="M74.3212 35.1702C74.3909 35.1585 74.4615 35.1538 74.5321 35.1562H77.2884C75.6716 29.9051 72.8035 25.1253 68.9307 21.228C65.0579 17.3307 60.2963 14.4325 55.0556 12.7827V15.4687C55.0579 15.5626 55.0532 15.6566 55.0415 15.7499C59.5286 17.2927 63.601 19.8465 66.944 23.2138C70.2869 26.5812 72.811 30.672 74.3212 35.1702Z" fill="#1053C1"/>
<path d="M74.2489 55.0415C72.3903 60.458 69.0596 65.2496 64.6301 68.879C64.5434 70.2516 64.3029 71.6101 63.913 72.929C70.2352 68.641 74.9231 62.3425 77.2161 55.0556H74.5302C74.4362 55.0579 74.3422 55.0532 74.2489 55.0415Z" fill="#1053C1"/>
<path d="M15.7498 34.9581C17.2926 30.4709 19.8464 26.3986 23.2137 23.0556C26.5811 19.7126 30.6719 17.1886 35.1701 15.6784C35.1584 15.6087 35.1537 15.538 35.156 15.4674V12.7112C29.9049 14.3279 25.1252 17.196 21.2279 21.0688C17.3306 24.9416 14.4324 29.7032 12.7826 34.944H15.4685C15.5625 34.9417 15.6565 34.9464 15.7498 34.9581Z" fill="#1053C1"/>
<path d="M15.6784 54.8301C15.6087 54.8418 15.538 54.8465 15.4674 54.8441H12.7112C14.9791 62.2195 19.6972 68.5995 26.0846 72.9285C25.6879 71.6064 25.4473 70.2425 25.3674 68.8645C20.8804 65.1923 17.5218 60.3274 15.6784 54.8301Z" fill="#1053C1"/>
</svg>
