<svg width="49" height="49" viewBox="0 0 49 49" fill="none" xmlns="http://www.w3.org/2000/svg">
<g clip-path="url(#paint0_diamond_1_396_clip_path)" data-figma-skip-parse="true"><g transform="matrix(0.0254027 0 -7.92775e-10 0.0253314 25.1351 25.1644)"><rect x="0" y="0" width="1058.24" height="1062.37" fill="url(#paint0_diamond_1_396)" opacity="1" shape-rendering="crispEdges"/><rect x="0" y="0" width="1058.24" height="1062.37" transform="scale(1 -1)" fill="url(#paint0_diamond_1_396)" opacity="1" shape-rendering="crispEdges"/><rect x="0" y="0" width="1058.24" height="1062.37" transform="scale(-1 1)" fill="url(#paint0_diamond_1_396)" opacity="1" shape-rendering="crispEdges"/><rect x="0" y="0" width="1058.24" height="1062.37" transform="scale(-1)" fill="url(#paint0_diamond_1_396)" opacity="1" shape-rendering="crispEdges"/></g></g><path d="M42.7825 40.2092C39.5541 43.961 35.2584 46.6392 30.4685 47.8865C25.6787 49.1338 20.6223 48.8909 15.974 47.1902C11.3258 45.4895 7.3066 42.4118 4.45269 38.3678C1.59878 34.3238 0.0458222 29.5057 0.000997949 24.5563C-0.0438263 19.6069 1.42161 14.7615 4.20181 10.6665C6.98201 6.57142 10.9448 3.4215 15.5615 1.63688C20.1782 -0.147727 25.2293 -0.482171 30.041 0.678168C34.8527 1.83851 39.1962 4.43846 42.492 8.13118L38.8001 11.4263C36.1745 8.48445 32.7142 6.41318 28.8809 5.48878C25.0477 4.56439 21.0236 4.83083 17.3457 6.25255C13.6678 7.67428 10.5108 10.1837 8.29592 13.446C6.08105 16.7084 4.9136 20.5685 4.94931 24.5115C4.98502 28.4545 6.22219 32.2929 8.49579 35.5146C10.7694 38.7363 13.9713 41.1881 17.6744 42.543C21.3774 43.8978 25.4056 44.0914 29.2215 43.0977C33.0374 42.104 36.4596 39.9704 39.0316 36.9815L42.7825 40.2092Z" data-figma-gradient-fill="{&#34;type&#34;:&#34;GRADIENT_DIAMOND&#34;,&#34;stops&#34;:[{&#34;color&#34;:{&#34;r&#34;:0.0,&#34;g&#34;:0.48235294222831726,&#34;b&#34;:1.0,&#34;a&#34;:1.0},&#34;position&#34;:0.0},{&#34;color&#34;:{&#34;r&#34;:0.062745101749897003,&#34;g&#34;:0.32549020648002625,&#34;b&#34;:0.75686275959014893,&#34;a&#34;:1.0},&#34;position&#34;:1.0}],&#34;stopsVar&#34;:[{&#34;color&#34;:{&#34;r&#34;:0.0,&#34;g&#34;:0.48235294222831726,&#34;b&#34;:1.0,&#34;a&#34;:1.0},&#34;position&#34;:0.0},{&#34;color&#34;:{&#34;r&#34;:0.062745101749897003,&#34;g&#34;:0.32549020648002625,&#34;b&#34;:0.75686275959014893,&#34;a&#34;:1.0},&#34;position&#34;:1.0}],&#34;transform&#34;:{&#34;m00&#34;:50.805435180664062,&#34;m01&#34;:-1.5855498531891499e-06,&#34;m02&#34;:-0.26758325099945068,&#34;m10&#34;:-9.9752732116153986e-12,&#34;m11&#34;:50.662788391113281,&#34;m12&#34;:-0.16699609160423279},&#34;opacity&#34;:1.0,&#34;blendMode&#34;:&#34;NORMAL&#34;,&#34;visible&#34;:true}"/>
<g clip-path="url(#paint1_diamond_1_396_clip_path)" data-figma-skip-parse="true"><g transform="matrix(0.0074184 0 -2.31515e-10 0.00740845 24.5502 24.7397)"><rect x="0" y="0" width="1024.6" height="1028.58" fill="url(#paint1_diamond_1_396)" opacity="1" shape-rendering="crispEdges"/><rect x="0" y="0" width="1024.6" height="1028.58" transform="scale(1 -1)" fill="url(#paint1_diamond_1_396)" opacity="1" shape-rendering="crispEdges"/><rect x="0" y="0" width="1024.6" height="1028.58" transform="scale(-1 1)" fill="url(#paint1_diamond_1_396)" opacity="1" shape-rendering="crispEdges"/><rect x="0" y="0" width="1024.6" height="1028.58" transform="scale(-1)" fill="url(#paint1_diamond_1_396)" opacity="1" shape-rendering="crispEdges"/></g></g><path d="M28.0013 30.3789C27.5478 30.4081 27.2465 30.1256 26.9515 29.818C26.817 29.6773 26.7117 29.4865 26.4355 29.6179C26.179 29.7378 26.2051 29.9306 26.202 30.1391C26.1801 31.2942 25.8559 31.6101 24.6945 31.6111C24.3119 31.6111 23.9293 31.6226 23.5478 31.6049C22.8796 31.5757 22.4626 31.1462 22.4344 30.4769C22.4261 30.2861 22.4511 30.0922 22.424 29.9046C22.4157 29.8379 22.389 29.7749 22.3468 29.7226C22.3046 29.6703 22.2487 29.6308 22.1853 29.6086C22.1219 29.5864 22.0536 29.5823 21.988 29.5969C21.9224 29.6114 21.8622 29.6439 21.8141 29.6909C21.6953 29.7951 21.5942 29.9139 21.4805 30.0203C20.9593 30.5113 20.3338 30.5269 19.8053 30.0411C19.4487 29.7117 19.1037 29.3666 18.7742 29.0101C18.2843 28.4805 18.2999 27.8759 18.7982 27.3421C18.892 27.2379 18.9911 27.142 19.0901 27.045C19.2079 26.9272 19.2715 26.8094 19.1944 26.628C19.113 26.4279 18.9754 26.3862 18.7847 26.3956C18.6111 26.4075 18.437 26.4075 18.2634 26.3956C17.983 26.3822 17.7184 26.2616 17.5243 26.0586C17.3303 25.8556 17.2217 25.5859 17.2209 25.3051C17.2043 24.8016 17.2084 24.2981 17.2209 23.7945C17.2345 23.0836 17.6379 22.6687 18.3385 22.6218C18.4946 22.6113 18.6512 22.6092 18.8076 22.6155C18.8933 22.627 18.9804 22.6078 19.0533 22.5612C19.1262 22.5146 19.1802 22.4438 19.2058 22.3611C19.2788 22.1797 19.2152 22.0682 19.087 21.9566C18.9952 21.8764 18.9108 21.7888 18.8274 21.7012C18.2853 21.1341 18.277 20.5107 18.8128 19.9551C19.1256 19.6309 19.4456 19.3108 19.7719 18.9991C20.3286 18.4695 20.9124 18.4685 21.4764 18.9866C21.5921 19.0908 21.7047 19.1951 21.811 19.315C21.8543 19.3693 21.9157 19.4063 21.984 19.4193C22.0522 19.4323 22.1229 19.4205 22.1832 19.3859C22.2577 19.3617 22.3225 19.3144 22.3682 19.2508C22.414 19.1873 22.4383 19.1108 22.4375 19.0325C22.6106 17.4604 22.7044 17.3812 24.2838 17.3801H24.805C25.8069 17.3853 26.1863 17.7648 26.2061 18.7552C26.2061 18.9762 26.1019 19.2347 26.4323 19.3723C26.7628 19.5099 26.8691 19.2378 27.0276 19.0898C27.7573 18.4091 28.2869 18.4101 28.9979 19.118C29.2564 19.3754 29.5191 19.6319 29.7704 19.8936C30.3646 20.5055 30.3667 21.1028 29.7819 21.7117C29.7214 21.7742 29.663 21.8388 29.5994 21.8972C29.4545 22.0275 29.3273 22.1443 29.4368 22.3799C29.5463 22.6155 29.7172 22.5999 29.9101 22.6019C30.0841 22.5989 30.2581 22.6059 30.4313 22.6228C30.9964 22.6895 31.3873 23.0888 31.4092 23.6559C31.43 24.1938 31.4269 24.7328 31.4092 25.2707C31.3946 25.9129 30.9651 26.3424 30.3396 26.3883C30.2009 26.3987 30.0612 26.3935 29.9226 26.3935C29.7349 26.3935 29.5525 26.3632 29.4451 26.602C29.3378 26.8407 29.4639 26.9564 29.6015 27.094C29.7278 27.2128 29.8472 27.3388 29.9591 27.4714C30.2948 27.8936 30.3292 28.4555 29.9778 28.8621C29.5817 29.3208 29.1345 29.7357 28.6956 30.1548C28.6016 30.2381 28.4914 30.301 28.3719 30.3396C28.2524 30.3782 28.1262 30.3916 28.0013 30.3789ZM25.124 29.6387C24.9885 29.1352 25.271 28.9434 25.7954 28.6494C26.7003 28.1417 27.2549 28.3367 27.7907 29.0925C27.9158 29.2697 28.0409 29.2551 28.216 29.1081C29.221 28.2637 29.2252 28.2741 28.3047 27.3682C28.269 27.3311 28.231 27.2963 28.191 27.2639C28.0002 27.1232 27.9898 26.972 28.1306 26.7813C28.2312 26.6602 28.3026 26.5175 28.3391 26.3643C28.484 25.4031 29.0584 25.1133 29.956 25.2822C30.2572 25.3385 30.3604 25.1779 30.3365 24.8912C30.325 24.7536 30.3365 24.6139 30.3365 24.4743C30.3281 23.56 30.4136 23.6684 29.5629 23.7122C28.9677 23.7424 28.5694 23.6517 28.485 22.9762C28.4492 22.7697 28.3629 22.5752 28.2338 22.4101C27.9919 22.0859 28.0315 21.8691 28.338 21.5855C29.147 20.8308 29.1178 20.8266 28.3693 20.0385C28.0941 19.7476 27.897 19.6924 27.6531 20.0385C27.1975 20.6806 26.6711 20.9486 25.9622 20.3762C25.83 20.2916 25.6788 20.241 25.5223 20.2292C25.1803 20.175 25.1053 19.9884 25.1136 19.6559C25.1386 18.4383 25.1251 18.4518 23.9127 18.4737C23.578 18.48 23.4571 18.6092 23.5144 18.9032C23.6823 19.7664 23.3914 20.2324 22.4917 20.4721C21.7078 20.6806 21.7359 20.7849 21.1365 20.1886C20.6309 19.683 20.6309 19.683 20.1316 20.1886C19.5061 20.8141 19.4883 20.8381 20.1451 21.4396C20.5287 21.7898 20.708 22.0838 20.3338 22.554C20.1835 22.7678 20.0863 23.0144 20.0502 23.2733C19.9846 23.6455 19.7927 23.7184 19.4435 23.7132C18.1988 23.6966 18.2071 23.7132 18.2895 24.9434C18.3082 25.2165 18.4115 25.3426 18.6679 25.2874C19.6155 25.0862 20.0513 25.4855 20.3359 26.4008C20.5048 26.9408 20.5631 27.2233 20.1097 27.6048C19.4612 28.149 19.4904 28.1845 20.0888 28.7849C20.6236 29.3218 20.6591 29.3531 21.1667 28.7578C21.5618 28.295 21.86 28.2877 22.4511 28.4889C23.3539 28.7954 23.6791 29.2603 23.5123 30.1568C23.4623 30.4248 23.6093 30.5353 23.8751 30.5144C24.0305 30.503 24.1879 30.5144 24.3432 30.5144C25.1949 30.4925 25.1209 30.627 25.1272 29.6387H25.124Z" data-figma-gradient-fill="{&#34;type&#34;:&#34;GRADIENT_DIAMOND&#34;,&#34;stops&#34;:[{&#34;color&#34;:{&#34;r&#34;:0.0,&#34;g&#34;:0.48235294222831726,&#34;b&#34;:1.0,&#34;a&#34;:1.0},&#34;position&#34;:0.0},{&#34;color&#34;:{&#34;r&#34;:0.062745101749897003,&#34;g&#34;:0.32549020648002625,&#34;b&#34;:0.75686275959014893,&#34;a&#34;:1.0},&#34;position&#34;:1.0}],&#34;stopsVar&#34;:[{&#34;color&#34;:{&#34;r&#34;:0.0,&#34;g&#34;:0.48235294222831726,&#34;b&#34;:1.0,&#34;a&#34;:1.0},&#34;position&#34;:0.0},{&#34;color&#34;:{&#34;r&#34;:0.062745101749897003,&#34;g&#34;:0.32549020648002625,&#34;b&#34;:0.75686275959014893,&#34;a&#34;:1.0},&#34;position&#34;:1.0}],&#34;transform&#34;:{&#34;m00&#34;:14.836803436279297,&#34;m01&#34;:-4.6303100020850252e-07,&#34;m02&#34;:17.131788253784180,&#34;m10&#34;:-2.9173809635435477e-12,&#34;m11&#34;:14.816902160644531,&#34;m12&#34;:17.331287384033203},&#34;opacity&#34;:1.0,&#34;blendMode&#34;:&#34;NORMAL&#34;,&#34;visible&#34;:true}"/>
<g clip-path="url(#paint2_diamond_1_396_clip_path)" data-figma-skip-parse="true"><g transform="matrix(0.00513135 0 -1.6014e-10 0.00565162 18.9843 18.754)"><rect x="0" y="0" width="1040.25" height="1039.52" fill="url(#paint2_diamond_1_396)" opacity="1" shape-rendering="crispEdges"/><rect x="0" y="0" width="1040.25" height="1039.52" transform="scale(1 -1)" fill="url(#paint2_diamond_1_396)" opacity="1" shape-rendering="crispEdges"/><rect x="0" y="0" width="1040.25" height="1039.52" transform="scale(-1 1)" fill="url(#paint2_diamond_1_396)" opacity="1" shape-rendering="crispEdges"/><rect x="0" y="0" width="1040.25" height="1039.52" transform="scale(-1)" fill="url(#paint2_diamond_1_396)" opacity="1" shape-rendering="crispEdges"/></g></g><path d="M21.5509 14.379C21.427 14.2763 21.3093 14.1663 21.1985 14.0496C21.1072 13.954 21.0557 13.8272 21.0543 13.695C21.053 13.5628 21.1019 13.4351 21.1912 13.3376C21.2648 13.2366 21.3748 13.1682 21.4979 13.1468C21.6211 13.1254 21.7477 13.1527 21.8511 13.2229C22.4578 13.6253 23.0427 14.0569 23.641 14.4739C23.8329 14.6073 23.6952 14.7105 23.6233 14.8117C23.2949 15.2808 22.9593 15.7499 22.6257 16.2117C22.4088 16.5151 22.1826 16.857 21.7468 16.5943C21.2881 16.3181 21.4831 15.9501 21.6989 15.5831C21.4904 15.4934 21.3184 15.6144 21.162 15.6769C17.677 17.0613 15.6128 19.5946 15.0301 23.31C14.9676 23.7114 14.857 24.0596 14.3723 23.9897C13.8875 23.9199 13.8688 23.5362 13.9344 23.1474C14.6642 18.843 17.0619 15.9469 21.1954 14.5104C21.2934 14.4791 21.3882 14.4437 21.5509 14.379Z" data-figma-gradient-fill="{&#34;type&#34;:&#34;GRADIENT_DIAMOND&#34;,&#34;stops&#34;:[{&#34;color&#34;:{&#34;r&#34;:0.0,&#34;g&#34;:0.48235294222831726,&#34;b&#34;:1.0,&#34;a&#34;:1.0},&#34;position&#34;:0.0},{&#34;color&#34;:{&#34;r&#34;:0.062745101749897003,&#34;g&#34;:0.32549020648002625,&#34;b&#34;:0.75686275959014893,&#34;a&#34;:1.0},&#34;position&#34;:1.0}],&#34;stopsVar&#34;:[{&#34;color&#34;:{&#34;r&#34;:0.0,&#34;g&#34;:0.48235294222831726,&#34;b&#34;:1.0,&#34;a&#34;:1.0},&#34;position&#34;:0.0},{&#34;color&#34;:{&#34;r&#34;:0.062745101749897003,&#34;g&#34;:0.32549020648002625,&#34;b&#34;:0.75686275959014893,&#34;a&#34;:1.0},&#34;position&#34;:1.0}],&#34;transform&#34;:{&#34;m00&#34;:10.262691497802734,&#34;m01&#34;:-3.2028088980950997e-07,&#34;m02&#34;:13.852931022644043,&#34;m10&#34;:-2.2255552435679338e-12,&#34;m11&#34;:11.303232192993164,&#34;m12&#34;:13.102390289306641},&#34;opacity&#34;:1.0,&#34;blendMode&#34;:&#34;NORMAL&#34;,&#34;visible&#34;:true}"/>
<g clip-path="url(#paint3_diamond_1_396_clip_path)" data-figma-skip-parse="true"><g transform="matrix(0.00567786 0 -1.77196e-10 0.00510953 30.4292 19.1755)"><rect x="0" y="0" width="1035.37" height="1044.41" fill="url(#paint3_diamond_1_396)" opacity="1" shape-rendering="crispEdges"/><rect x="0" y="0" width="1035.37" height="1044.41" transform="scale(1 -1)" fill="url(#paint3_diamond_1_396)" opacity="1" shape-rendering="crispEdges"/><rect x="0" y="0" width="1035.37" height="1044.41" transform="scale(-1 1)" fill="url(#paint3_diamond_1_396)" opacity="1" shape-rendering="crispEdges"/><rect x="0" y="0" width="1035.37" height="1044.41" transform="scale(-1)" fill="url(#paint3_diamond_1_396)" opacity="1" shape-rendering="crispEdges"/></g></g><path d="M34.4787 21.7104C34.583 21.5926 34.6685 21.481 34.7686 21.3882C34.8549 21.2999 34.9708 21.2465 35.0941 21.2383C35.2174 21.23 35.3394 21.2674 35.4368 21.3434C35.663 21.4967 35.7693 21.751 35.6224 21.9793C35.2189 22.6048 34.78 23.2115 34.3484 23.8193C34.2046 24.0226 34.0732 23.8589 33.9544 23.7755C33.5144 23.4628 33.0776 23.15 32.6398 22.8373C32.3218 22.6111 31.9507 22.3776 32.2301 21.922C32.5095 21.4664 32.8764 21.6416 33.3018 21.9533C33.0488 20.92 32.5911 19.948 31.9559 19.0948C30.3651 16.9118 28.2384 15.5972 25.5498 15.2209C25.481 15.2105 25.4122 15.1979 25.3413 15.1865C24.9786 15.1281 24.7638 14.9321 24.8201 14.5485C24.8722 14.1857 25.1328 14.071 25.4685 14.1054C26.4199 14.1977 27.3521 14.4318 28.2342 14.7997C31.165 16.0354 33.1617 18.153 34.2244 21.1526C34.2817 21.3163 34.338 21.48 34.3964 21.6426C34.4058 21.6562 34.4245 21.6645 34.4787 21.7104Z" data-figma-gradient-fill="{&#34;type&#34;:&#34;GRADIENT_DIAMOND&#34;,&#34;stops&#34;:[{&#34;color&#34;:{&#34;r&#34;:0.0,&#34;g&#34;:0.48235294222831726,&#34;b&#34;:1.0,&#34;a&#34;:1.0},&#34;position&#34;:0.0},{&#34;color&#34;:{&#34;r&#34;:0.062745101749897003,&#34;g&#34;:0.32549020648002625,&#34;b&#34;:0.75686275959014893,&#34;a&#34;:1.0},&#34;position&#34;:1.0}],&#34;stopsVar&#34;:[{&#34;color&#34;:{&#34;r&#34;:0.0,&#34;g&#34;:0.48235294222831726,&#34;b&#34;:1.0,&#34;a&#34;:1.0},&#34;position&#34;:0.0},{&#34;color&#34;:{&#34;r&#34;:0.062745101749897003,&#34;g&#34;:0.32549020648002625,&#34;b&#34;:0.75686275959014893,&#34;a&#34;:1.0},&#34;position&#34;:1.0}],&#34;transform&#34;:{&#34;m00&#34;:11.355713844299316,&#34;m01&#34;:-3.5439219914223941e-07,&#34;m02&#34;:24.751379013061523,&#34;m10&#34;:-2.0120866778272628e-12,&#34;m11&#34;:10.219059944152832,&#34;m12&#34;:14.065924644470215},&#34;opacity&#34;:1.0,&#34;blendMode&#34;:&#34;NORMAL&#34;,&#34;visible&#34;:true}"/>
<g clip-path="url(#paint4_diamond_1_396_clip_path)" data-figma-skip-parse="true"><g transform="matrix(0.00512023 0 -1.59793e-10 0.00568724 29.9707 30.6329)"><rect x="0" y="0" width="1040.36" height="1039.23" fill="url(#paint4_diamond_1_396)" opacity="1" shape-rendering="crispEdges"/><rect x="0" y="0" width="1040.36" height="1039.23" transform="scale(1 -1)" fill="url(#paint4_diamond_1_396)" opacity="1" shape-rendering="crispEdges"/><rect x="0" y="0" width="1040.36" height="1039.23" transform="scale(-1 1)" fill="url(#paint4_diamond_1_396)" opacity="1" shape-rendering="crispEdges"/><rect x="0" y="0" width="1040.36" height="1039.23" transform="scale(-1)" fill="url(#paint4_diamond_1_396)" opacity="1" shape-rendering="crispEdges"/></g></g><path d="M27.0102 34.64C27.1697 34.7682 27.2667 34.8402 27.3553 34.9205C27.6149 35.155 27.6555 35.4417 27.4418 35.7044C27.2281 35.9671 26.9571 35.9629 26.6954 35.7815C26.1398 35.3979 25.5977 34.9913 25.0368 34.614C24.8012 34.4555 24.9326 34.3398 25.0295 34.197C25.3527 33.7452 25.6752 33.2935 25.9969 32.8417C26.2127 32.5384 26.4296 32.1996 26.8737 32.4425C27.3178 32.6854 27.1666 33.0429 26.955 33.4641C28.2633 33.1014 29.4696 32.4398 30.4786 31.5313C32.2446 29.9593 33.2985 27.9983 33.606 25.6465C33.6561 25.2587 33.7979 24.9324 34.2315 24.9897C34.6934 25.0512 34.7601 25.4067 34.6923 25.8237C33.9626 30.2178 31.4961 33.1305 27.2583 34.5306C27.1968 34.5514 27.1395 34.5827 27.0102 34.64Z" data-figma-gradient-fill="{&#34;type&#34;:&#34;GRADIENT_DIAMOND&#34;,&#34;stops&#34;:[{&#34;color&#34;:{&#34;r&#34;:0.0,&#34;g&#34;:0.48235294222831726,&#34;b&#34;:1.0,&#34;a&#34;:1.0},&#34;position&#34;:0.0},{&#34;color&#34;:{&#34;r&#34;:0.062745101749897003,&#34;g&#34;:0.32549020648002625,&#34;b&#34;:0.75686275959014893,&#34;a&#34;:1.0},&#34;position&#34;:1.0}],&#34;stopsVar&#34;:[{&#34;color&#34;:{&#34;r&#34;:0.0,&#34;g&#34;:0.48235294222831726,&#34;b&#34;:1.0,&#34;a&#34;:1.0},&#34;position&#34;:0.0},{&#34;color&#34;:{&#34;r&#34;:0.062745101749897003,&#34;g&#34;:0.32549020648002625,&#34;b&#34;:0.75686275959014893,&#34;a&#34;:1.0},&#34;position&#34;:1.0}],&#34;transform&#34;:{&#34;m00&#34;:10.240457534790039,&#34;m01&#34;:-3.1958700219547609e-07,&#34;m02&#34;:24.850454330444336,&#34;m10&#34;:-2.2395822175946822e-12,&#34;m11&#34;:11.374472618103027,&#34;m12&#34;:24.945661544799805},&#34;opacity&#34;:1.0,&#34;blendMode&#34;:&#34;NORMAL&#34;,&#34;visible&#34;:true}"/>
<g clip-path="url(#paint5_diamond_1_396_clip_path)" data-figma-skip-parse="true"><g transform="matrix(0.00566871 0 -1.76911e-10 0.00510661 18.5579 30.1474)"><rect x="0" y="0" width="1035.44" height="1044.44" fill="url(#paint5_diamond_1_396)" opacity="1" shape-rendering="crispEdges"/><rect x="0" y="0" width="1035.44" height="1044.44" transform="scale(1 -1)" fill="url(#paint5_diamond_1_396)" opacity="1" shape-rendering="crispEdges"/><rect x="0" y="0" width="1035.44" height="1044.44" transform="scale(-1 1)" fill="url(#paint5_diamond_1_396)" opacity="1" shape-rendering="crispEdges"/><rect x="0" y="0" width="1035.44" height="1044.44" transform="scale(-1)" fill="url(#paint5_diamond_1_396)" opacity="1" shape-rendering="crispEdges"/></g></g><path d="M14.2006 27.2568C14.0854 27.3935 13.961 27.5224 13.8285 27.6425C13.7357 27.7241 13.6155 27.7676 13.4919 27.7643C13.3684 27.761 13.2507 27.7112 13.1623 27.6248C12.9538 27.4486 12.8756 27.2078 13.0299 26.9742C13.4323 26.3675 13.8639 25.7796 14.2809 25.1812C14.4342 24.9622 14.5488 25.1353 14.6625 25.2145C15.1597 25.5627 15.6497 25.9213 16.148 26.2685C16.4607 26.4843 16.6255 26.7501 16.393 27.1025C16.1782 27.4277 15.878 27.3996 15.5736 27.2067C15.4953 27.1676 15.4149 27.1327 15.3328 27.1025C15.7029 28.4432 16.3832 29.6781 17.3187 30.7074C18.8138 32.4057 20.8775 33.4996 23.1222 33.7838C23.5278 33.8401 23.8718 33.9433 23.8009 34.4322C23.73 34.9211 23.3485 34.9201 22.9586 34.8575C18.7678 34.1893 15.9322 31.8604 14.4237 27.9021C14.3508 27.7144 14.2903 27.5174 14.2006 27.2568Z" data-figma-gradient-fill="{&#34;type&#34;:&#34;GRADIENT_DIAMOND&#34;,&#34;stops&#34;:[{&#34;color&#34;:{&#34;r&#34;:0.0,&#34;g&#34;:0.48235294222831726,&#34;b&#34;:1.0,&#34;a&#34;:1.0},&#34;position&#34;:0.0},{&#34;color&#34;:{&#34;r&#34;:0.062745101749897003,&#34;g&#34;:0.32549020648002625,&#34;b&#34;:0.75686275959014893,&#34;a&#34;:1.0},&#34;position&#34;:1.0}],&#34;stopsVar&#34;:[{&#34;color&#34;:{&#34;r&#34;:0.0,&#34;g&#34;:0.48235294222831726,&#34;b&#34;:1.0,&#34;a&#34;:1.0},&#34;position&#34;:0.0},{&#34;color&#34;:{&#34;r&#34;:0.062745101749897003,&#34;g&#34;:0.32549020648002625,&#34;b&#34;:0.75686275959014893,&#34;a&#34;:1.0},&#34;position&#34;:1.0}],&#34;transform&#34;:{&#34;m00&#34;:11.337412834167480,&#34;m01&#34;:-3.5382106489123544e-07,&#34;m02&#34;:12.889201164245605,&#34;m10&#34;:-2.0109354719605177e-12,&#34;m11&#34;:10.213212966918945,&#34;m12&#34;:25.040798187255859},&#34;opacity&#34;:1.0,&#34;blendMode&#34;:&#34;NORMAL&#34;,&#34;visible&#34;:true}"/>
<g clip-path="url(#paint6_diamond_1_396_clip_path)" data-figma-skip-parse="true"><g transform="matrix(0.00335878 0 -1.04822e-10 0.00334759 24.4216 24.6163)"><rect x="0" y="0" width="1067.06" height="1071.26" fill="url(#paint6_diamond_1_396)" opacity="1" shape-rendering="crispEdges"/><rect x="0" y="0" width="1067.06" height="1071.26" transform="scale(1 -1)" fill="url(#paint6_diamond_1_396)" opacity="1" shape-rendering="crispEdges"/><rect x="0" y="0" width="1067.06" height="1071.26" transform="scale(-1 1)" fill="url(#paint6_diamond_1_396)" opacity="1" shape-rendering="crispEdges"/><rect x="0" y="0" width="1067.06" height="1071.26" transform="scale(-1)" fill="url(#paint6_diamond_1_396)" opacity="1" shape-rendering="crispEdges"/></g></g><path d="M24.3476 21.291C24.7696 21.2937 25.1869 21.3797 25.5756 21.5441C25.9643 21.7084 26.3168 21.9478 26.6127 22.2486C26.9087 22.5495 27.1424 22.9057 27.3004 23.297C27.4584 23.6883 27.5376 24.107 27.5335 24.529C27.5189 26.2866 26.0229 27.7607 24.284 27.7221C23.4315 27.7071 22.6192 27.3569 22.023 26.7473C21.4267 26.1378 21.0945 25.318 21.0982 24.4654C21.1028 24.0435 21.1906 23.6267 21.3564 23.2387C21.5223 22.8508 21.763 22.4994 22.0648 22.2045C22.3666 21.9097 22.7236 21.6773 23.1153 21.5205C23.507 21.3638 23.9257 21.2858 24.3476 21.291ZM26.4243 24.4894C26.421 24.0728 26.2943 23.6666 26.0603 23.322C25.8264 22.9774 25.4955 22.7098 25.1096 22.5531C24.7236 22.3963 24.2999 22.3575 23.8919 22.4413C23.4839 22.5252 23.1099 22.7281 22.8171 23.0244C22.5243 23.3207 22.3259 23.6971 22.2468 24.106C22.1678 24.515 22.2117 24.9383 22.373 25.3223C22.5343 25.7064 22.8057 26.034 23.1531 26.2639C23.5005 26.4938 23.9081 26.6156 24.3247 26.614C24.8848 26.6104 25.4205 26.3846 25.8142 25.9862C26.2079 25.5878 26.4273 25.0494 26.4243 24.4894Z" data-figma-gradient-fill="{&#34;type&#34;:&#34;GRADIENT_DIAMOND&#34;,&#34;stops&#34;:[{&#34;color&#34;:{&#34;r&#34;:0.0,&#34;g&#34;:0.48235294222831726,&#34;b&#34;:1.0,&#34;a&#34;:1.0},&#34;position&#34;:0.0},{&#34;color&#34;:{&#34;r&#34;:0.062745101749897003,&#34;g&#34;:0.32549020648002625,&#34;b&#34;:0.75686275959014893,&#34;a&#34;:1.0},&#34;position&#34;:1.0}],&#34;stopsVar&#34;:[{&#34;color&#34;:{&#34;r&#34;:0.0,&#34;g&#34;:0.48235294222831726,&#34;b&#34;:1.0,&#34;a&#34;:1.0},&#34;position&#34;:0.0},{&#34;color&#34;:{&#34;r&#34;:0.062745101749897003,&#34;g&#34;:0.32549020648002625,&#34;b&#34;:0.75686275959014893,&#34;a&#34;:1.0},&#34;position&#34;:1.0}],&#34;transform&#34;:{&#34;m00&#34;:6.7175583839416504,&#34;m01&#34;:-2.0964338887097256e-07,&#34;m02&#34;:21.062780380249023,&#34;m10&#34;:-1.3182521480664677e-12,&#34;m11&#34;:6.6951880455017090,&#34;m12&#34;:21.268703460693359},&#34;opacity&#34;:1.0,&#34;blendMode&#34;:&#34;NORMAL&#34;,&#34;visible&#34;:true}"/>
<defs>
<clipPath id="paint0_diamond_1_396_clip_path"><path d="M42.7825 40.2092C39.5541 43.961 35.2584 46.6392 30.4685 47.8865C25.6787 49.1338 20.6223 48.8909 15.974 47.1902C11.3258 45.4895 7.3066 42.4118 4.45269 38.3678C1.59878 34.3238 0.0458222 29.5057 0.000997949 24.5563C-0.0438263 19.6069 1.42161 14.7615 4.20181 10.6665C6.98201 6.57142 10.9448 3.4215 15.5615 1.63688C20.1782 -0.147727 25.2293 -0.482171 30.041 0.678168C34.8527 1.83851 39.1962 4.43846 42.492 8.13118L38.8001 11.4263C36.1745 8.48445 32.7142 6.41318 28.8809 5.48878C25.0477 4.56439 21.0236 4.83083 17.3457 6.25255C13.6678 7.67428 10.5108 10.1837 8.29592 13.446C6.08105 16.7084 4.9136 20.5685 4.94931 24.5115C4.98502 28.4545 6.22219 32.2929 8.49579 35.5146C10.7694 38.7363 13.9713 41.1881 17.6744 42.543C21.3774 43.8978 25.4056 44.0914 29.2215 43.0977C33.0374 42.104 36.4596 39.9704 39.0316 36.9815L42.7825 40.2092Z"/></clipPath><clipPath id="paint1_diamond_1_396_clip_path"><path d="M28.0013 30.3789C27.5478 30.4081 27.2465 30.1256 26.9515 29.818C26.817 29.6773 26.7117 29.4865 26.4355 29.6179C26.179 29.7378 26.2051 29.9306 26.202 30.1391C26.1801 31.2942 25.8559 31.6101 24.6945 31.6111C24.3119 31.6111 23.9293 31.6226 23.5478 31.6049C22.8796 31.5757 22.4626 31.1462 22.4344 30.4769C22.4261 30.2861 22.4511 30.0922 22.424 29.9046C22.4157 29.8379 22.389 29.7749 22.3468 29.7226C22.3046 29.6703 22.2487 29.6308 22.1853 29.6086C22.1219 29.5864 22.0536 29.5823 21.988 29.5969C21.9224 29.6114 21.8622 29.6439 21.8141 29.6909C21.6953 29.7951 21.5942 29.9139 21.4805 30.0203C20.9593 30.5113 20.3338 30.5269 19.8053 30.0411C19.4487 29.7117 19.1037 29.3666 18.7742 29.0101C18.2843 28.4805 18.2999 27.8759 18.7982 27.3421C18.892 27.2379 18.9911 27.142 19.0901 27.045C19.2079 26.9272 19.2715 26.8094 19.1944 26.628C19.113 26.4279 18.9754 26.3862 18.7847 26.3956C18.6111 26.4075 18.437 26.4075 18.2634 26.3956C17.983 26.3822 17.7184 26.2616 17.5243 26.0586C17.3303 25.8556 17.2217 25.5859 17.2209 25.3051C17.2043 24.8016 17.2084 24.2981 17.2209 23.7945C17.2345 23.0836 17.6379 22.6687 18.3385 22.6218C18.4946 22.6113 18.6512 22.6092 18.8076 22.6155C18.8933 22.627 18.9804 22.6078 19.0533 22.5612C19.1262 22.5146 19.1802 22.4438 19.2058 22.3611C19.2788 22.1797 19.2152 22.0682 19.087 21.9566C18.9952 21.8764 18.9108 21.7888 18.8274 21.7012C18.2853 21.1341 18.277 20.5107 18.8128 19.9551C19.1256 19.6309 19.4456 19.3108 19.7719 18.9991C20.3286 18.4695 20.9124 18.4685 21.4764 18.9866C21.5921 19.0908 21.7047 19.1951 21.811 19.315C21.8543 19.3693 21.9157 19.4063 21.984 19.4193C22.0522 19.4323 22.1229 19.4205 22.1832 19.3859C22.2577 19.3617 22.3225 19.3144 22.3682 19.2508C22.414 19.1873 22.4383 19.1108 22.4375 19.0325C22.6106 17.4604 22.7044 17.3812 24.2838 17.3801H24.805C25.8069 17.3853 26.1863 17.7648 26.2061 18.7552C26.2061 18.9762 26.1019 19.2347 26.4323 19.3723C26.7628 19.5099 26.8691 19.2378 27.0276 19.0898C27.7573 18.4091 28.2869 18.4101 28.9979 19.118C29.2564 19.3754 29.5191 19.6319 29.7704 19.8936C30.3646 20.5055 30.3667 21.1028 29.7819 21.7117C29.7214 21.7742 29.663 21.8388 29.5994 21.8972C29.4545 22.0275 29.3273 22.1443 29.4368 22.3799C29.5463 22.6155 29.7172 22.5999 29.9101 22.6019C30.0841 22.5989 30.2581 22.6059 30.4313 22.6228C30.9964 22.6895 31.3873 23.0888 31.4092 23.6559C31.43 24.1938 31.4269 24.7328 31.4092 25.2707C31.3946 25.9129 30.9651 26.3424 30.3396 26.3883C30.2009 26.3987 30.0612 26.3935 29.9226 26.3935C29.7349 26.3935 29.5525 26.3632 29.4451 26.602C29.3378 26.8407 29.4639 26.9564 29.6015 27.094C29.7278 27.2128 29.8472 27.3388 29.9591 27.4714C30.2948 27.8936 30.3292 28.4555 29.9778 28.8621C29.5817 29.3208 29.1345 29.7357 28.6956 30.1548C28.6016 30.2381 28.4914 30.301 28.3719 30.3396C28.2524 30.3782 28.1262 30.3916 28.0013 30.3789ZM25.124 29.6387C24.9885 29.1352 25.271 28.9434 25.7954 28.6494C26.7003 28.1417 27.2549 28.3367 27.7907 29.0925C27.9158 29.2697 28.0409 29.2551 28.216 29.1081C29.221 28.2637 29.2252 28.2741 28.3047 27.3682C28.269 27.3311 28.231 27.2963 28.191 27.2639C28.0002 27.1232 27.9898 26.972 28.1306 26.7813C28.2312 26.6602 28.3026 26.5175 28.3391 26.3643C28.484 25.4031 29.0584 25.1133 29.956 25.2822C30.2572 25.3385 30.3604 25.1779 30.3365 24.8912C30.325 24.7536 30.3365 24.6139 30.3365 24.4743C30.3281 23.56 30.4136 23.6684 29.5629 23.7122C28.9677 23.7424 28.5694 23.6517 28.485 22.9762C28.4492 22.7697 28.3629 22.5752 28.2338 22.4101C27.9919 22.0859 28.0315 21.8691 28.338 21.5855C29.147 20.8308 29.1178 20.8266 28.3693 20.0385C28.0941 19.7476 27.897 19.6924 27.6531 20.0385C27.1975 20.6806 26.6711 20.9486 25.9622 20.3762C25.83 20.2916 25.6788 20.241 25.5223 20.2292C25.1803 20.175 25.1053 19.9884 25.1136 19.6559C25.1386 18.4383 25.1251 18.4518 23.9127 18.4737C23.578 18.48 23.4571 18.6092 23.5144 18.9032C23.6823 19.7664 23.3914 20.2324 22.4917 20.4721C21.7078 20.6806 21.7359 20.7849 21.1365 20.1886C20.6309 19.683 20.6309 19.683 20.1316 20.1886C19.5061 20.8141 19.4883 20.8381 20.1451 21.4396C20.5287 21.7898 20.708 22.0838 20.3338 22.554C20.1835 22.7678 20.0863 23.0144 20.0502 23.2733C19.9846 23.6455 19.7927 23.7184 19.4435 23.7132C18.1988 23.6966 18.2071 23.7132 18.2895 24.9434C18.3082 25.2165 18.4115 25.3426 18.6679 25.2874C19.6155 25.0862 20.0513 25.4855 20.3359 26.4008C20.5048 26.9408 20.5631 27.2233 20.1097 27.6048C19.4612 28.149 19.4904 28.1845 20.0888 28.7849C20.6236 29.3218 20.6591 29.3531 21.1667 28.7578C21.5618 28.295 21.86 28.2877 22.4511 28.4889C23.3539 28.7954 23.6791 29.2603 23.5123 30.1568C23.4623 30.4248 23.6093 30.5353 23.8751 30.5144C24.0305 30.503 24.1879 30.5144 24.3432 30.5144C25.1949 30.4925 25.1209 30.627 25.1272 29.6387H25.124Z"/></clipPath><clipPath id="paint2_diamond_1_396_clip_path"><path d="M21.5509 14.379C21.427 14.2763 21.3093 14.1663 21.1985 14.0496C21.1072 13.954 21.0557 13.8272 21.0543 13.695C21.053 13.5628 21.1019 13.4351 21.1912 13.3376C21.2648 13.2366 21.3748 13.1682 21.4979 13.1468C21.6211 13.1254 21.7477 13.1527 21.8511 13.2229C22.4578 13.6253 23.0427 14.0569 23.641 14.4739C23.8329 14.6073 23.6952 14.7105 23.6233 14.8117C23.2949 15.2808 22.9593 15.7499 22.6257 16.2117C22.4088 16.5151 22.1826 16.857 21.7468 16.5943C21.2881 16.3181 21.4831 15.9501 21.6989 15.5831C21.4904 15.4934 21.3184 15.6144 21.162 15.6769C17.677 17.0613 15.6128 19.5946 15.0301 23.31C14.9676 23.7114 14.857 24.0596 14.3723 23.9897C13.8875 23.9199 13.8688 23.5362 13.9344 23.1474C14.6642 18.843 17.0619 15.9469 21.1954 14.5104C21.2934 14.4791 21.3882 14.4437 21.5509 14.379Z"/></clipPath><clipPath id="paint3_diamond_1_396_clip_path"><path d="M34.4787 21.7104C34.583 21.5926 34.6685 21.481 34.7686 21.3882C34.8549 21.2999 34.9708 21.2465 35.0941 21.2383C35.2174 21.23 35.3394 21.2674 35.4368 21.3434C35.663 21.4967 35.7693 21.751 35.6224 21.9793C35.2189 22.6048 34.78 23.2115 34.3484 23.8193C34.2046 24.0226 34.0732 23.8589 33.9544 23.7755C33.5144 23.4628 33.0776 23.15 32.6398 22.8373C32.3218 22.6111 31.9507 22.3776 32.2301 21.922C32.5095 21.4664 32.8764 21.6416 33.3018 21.9533C33.0488 20.92 32.5911 19.948 31.9559 19.0948C30.3651 16.9118 28.2384 15.5972 25.5498 15.2209C25.481 15.2105 25.4122 15.1979 25.3413 15.1865C24.9786 15.1281 24.7638 14.9321 24.8201 14.5485C24.8722 14.1857 25.1328 14.071 25.4685 14.1054C26.4199 14.1977 27.3521 14.4318 28.2342 14.7997C31.165 16.0354 33.1617 18.153 34.2244 21.1526C34.2817 21.3163 34.338 21.48 34.3964 21.6426C34.4058 21.6562 34.4245 21.6645 34.4787 21.7104Z"/></clipPath><clipPath id="paint4_diamond_1_396_clip_path"><path d="M27.0102 34.64C27.1697 34.7682 27.2667 34.8402 27.3553 34.9205C27.6149 35.155 27.6555 35.4417 27.4418 35.7044C27.2281 35.9671 26.9571 35.9629 26.6954 35.7815C26.1398 35.3979 25.5977 34.9913 25.0368 34.614C24.8012 34.4555 24.9326 34.3398 25.0295 34.197C25.3527 33.7452 25.6752 33.2935 25.9969 32.8417C26.2127 32.5384 26.4296 32.1996 26.8737 32.4425C27.3178 32.6854 27.1666 33.0429 26.955 33.4641C28.2633 33.1014 29.4696 32.4398 30.4786 31.5313C32.2446 29.9593 33.2985 27.9983 33.606 25.6465C33.6561 25.2587 33.7979 24.9324 34.2315 24.9897C34.6934 25.0512 34.7601 25.4067 34.6923 25.8237C33.9626 30.2178 31.4961 33.1305 27.2583 34.5306C27.1968 34.5514 27.1395 34.5827 27.0102 34.64Z"/></clipPath><clipPath id="paint5_diamond_1_396_clip_path"><path d="M14.2006 27.2568C14.0854 27.3935 13.961 27.5224 13.8285 27.6425C13.7357 27.7241 13.6155 27.7676 13.4919 27.7643C13.3684 27.761 13.2507 27.7112 13.1623 27.6248C12.9538 27.4486 12.8756 27.2078 13.0299 26.9742C13.4323 26.3675 13.8639 25.7796 14.2809 25.1812C14.4342 24.9622 14.5488 25.1353 14.6625 25.2145C15.1597 25.5627 15.6497 25.9213 16.148 26.2685C16.4607 26.4843 16.6255 26.7501 16.393 27.1025C16.1782 27.4277 15.878 27.3996 15.5736 27.2067C15.4953 27.1676 15.4149 27.1327 15.3328 27.1025C15.7029 28.4432 16.3832 29.6781 17.3187 30.7074C18.8138 32.4057 20.8775 33.4996 23.1222 33.7838C23.5278 33.8401 23.8718 33.9433 23.8009 34.4322C23.73 34.9211 23.3485 34.9201 22.9586 34.8575C18.7678 34.1893 15.9322 31.8604 14.4237 27.9021C14.3508 27.7144 14.2903 27.5174 14.2006 27.2568Z"/></clipPath><clipPath id="paint6_diamond_1_396_clip_path"><path d="M24.3476 21.291C24.7696 21.2937 25.1869 21.3797 25.5756 21.5441C25.9643 21.7084 26.3168 21.9478 26.6127 22.2486C26.9087 22.5495 27.1424 22.9057 27.3004 23.297C27.4584 23.6883 27.5376 24.107 27.5335 24.529C27.5189 26.2866 26.0229 27.7607 24.284 27.7221C23.4315 27.7071 22.6192 27.3569 22.023 26.7473C21.4267 26.1378 21.0945 25.318 21.0982 24.4654C21.1028 24.0435 21.1906 23.6267 21.3564 23.2387C21.5223 22.8508 21.763 22.4994 22.0648 22.2045C22.3666 21.9097 22.7236 21.6773 23.1153 21.5205C23.507 21.3638 23.9257 21.2858 24.3476 21.291ZM26.4243 24.4894C26.421 24.0728 26.2943 23.6666 26.0603 23.322C25.8264 22.9774 25.4955 22.7098 25.1096 22.5531C24.7236 22.3963 24.2999 22.3575 23.8919 22.4413C23.4839 22.5252 23.1099 22.7281 22.8171 23.0244C22.5243 23.3207 22.3259 23.6971 22.2468 24.106C22.1678 24.515 22.2117 24.9383 22.373 25.3223C22.5343 25.7064 22.8057 26.034 23.1531 26.2639C23.5005 26.4938 23.9081 26.6156 24.3247 26.614C24.8848 26.6104 25.4205 26.3846 25.8142 25.9862C26.2079 25.5878 26.4273 25.0494 26.4243 24.4894Z"/></clipPath><linearGradient id="paint0_diamond_1_396" x1="0" y1="0" x2="500" y2="500" gradientUnits="userSpaceOnUse">
<stop stop-color="#007BFF"/>
<stop offset="1" stop-color="#1053C1"/>
</linearGradient>
<linearGradient id="paint1_diamond_1_396" x1="0" y1="0" x2="500" y2="500" gradientUnits="userSpaceOnUse">
<stop stop-color="#007BFF"/>
<stop offset="1" stop-color="#1053C1"/>
</linearGradient>
<linearGradient id="paint2_diamond_1_396" x1="0" y1="0" x2="500" y2="500" gradientUnits="userSpaceOnUse">
<stop stop-color="#007BFF"/>
<stop offset="1" stop-color="#1053C1"/>
</linearGradient>
<linearGradient id="paint3_diamond_1_396" x1="0" y1="0" x2="500" y2="500" gradientUnits="userSpaceOnUse">
<stop stop-color="#007BFF"/>
<stop offset="1" stop-color="#1053C1"/>
</linearGradient>
<linearGradient id="paint4_diamond_1_396" x1="0" y1="0" x2="500" y2="500" gradientUnits="userSpaceOnUse">
<stop stop-color="#007BFF"/>
<stop offset="1" stop-color="#1053C1"/>
</linearGradient>
<linearGradient id="paint5_diamond_1_396" x1="0" y1="0" x2="500" y2="500" gradientUnits="userSpaceOnUse">
<stop stop-color="#007BFF"/>
<stop offset="1" stop-color="#1053C1"/>
</linearGradient>
<linearGradient id="paint6_diamond_1_396" x1="0" y1="0" x2="500" y2="500" gradientUnits="userSpaceOnUse">
<stop stop-color="#007BFF"/>
<stop offset="1" stop-color="#1053C1"/>
</linearGradient>
</defs>
</svg>
