<svg width="143" height="93" viewBox="0 0 143 93" fill="none" xmlns="http://www.w3.org/2000/svg">
<path d="M91.1135 0C62.8829 0 40 20.7139 40 46.2688C40 71.8236 62.8829 92.5375 91.1135 92.5375C119.339 92.5375 142.222 71.8236 142.222 46.2688C142.222 20.7139 119.339 0 91.1135 0ZM91.1135 90.2781C64.2625 90.2781 42.4911 70.5747 42.4911 46.2688C42.4911 21.9628 64.2576 2.25938 91.1135 2.25938C117.965 2.25938 139.731 21.9628 139.731 46.2688C139.731 70.5747 117.965 90.2781 91.1135 90.2781Z" fill="#6D4ECB" fill-opacity="0.13"/>
<path d="M70 50.2901V53.3096L63.0025 45.2649L56 53.3096L49.0024 45.2649L42 53.3096L34.9976 45.2649L28 53.3096L20.9976 45.2649L14 53.3096L6.99757 45.2649L0 53.3096V50.2901L6.99757 42.2454L13.9951 50.2945L20.9976 42.2454L27.9951 50.2945L34.9976 42.2454L41.9951 50.2945L48.9927 42.2454L55.9951 50.2945L62.9976 42.2454L69.9951 50.2945L70 50.2901Z" fill="#141414" fill-opacity="0.5"/>
</svg>
