<svg width="313" height="313" viewBox="0 0 313 313" fill="none" xmlns="http://www.w3.org/2000/svg">
<path d="M170.005 33.1807C172.134 34.0207 174.381 34.6558 176.728 35.0518C181.289 35.8214 185.762 36.8417 190.132 38.0986C192.413 38.7546 194.706 39.1543 196.982 39.3184C198.865 40.6094 200.907 41.7275 203.1 42.6367C207.352 44.4003 211.487 46.3977 215.487 48.6133C217.568 49.7659 219.72 50.67 221.907 51.3398C223.457 53.0229 225.203 54.5726 227.143 55.9512C230.894 58.6176 234.491 61.4906 237.916 64.5537C239.692 66.1418 241.592 67.503 243.579 68.6426C244.719 70.63 246.081 72.5304 247.669 74.3066C250.732 77.7319 253.605 81.3289 256.271 85.0801C257.65 87.0196 259.2 88.7656 260.883 90.3154C261.553 92.5023 262.457 94.6535 263.609 96.7344C265.825 100.735 267.822 104.869 269.586 109.122C270.495 111.314 271.612 113.357 272.903 115.239C273.067 117.515 273.467 119.809 274.123 122.09C275.38 126.46 276.401 130.933 277.171 135.495C277.567 137.842 278.2 140.088 279.04 142.217C278.689 144.48 278.567 146.815 278.698 149.193C278.825 151.48 278.889 153.787 278.889 156.111C278.889 158.436 278.825 160.742 278.698 163.028C278.567 165.407 278.69 167.741 279.04 170.004C278.2 172.133 277.567 174.381 277.171 176.728C276.401 181.289 275.38 185.762 274.123 190.132C273.467 192.413 273.067 194.706 272.903 196.982C271.612 198.864 270.495 200.907 269.586 203.1C268.043 206.821 266.32 210.452 264.43 213.981L263.609 215.487C262.457 217.568 261.553 219.719 260.883 221.906C259.403 223.269 258.026 224.783 256.778 226.447L256.271 227.143C253.605 230.894 250.732 234.491 247.669 237.916C246.081 239.692 244.719 241.592 243.579 243.579C241.592 244.719 239.692 246.081 237.916 247.669C234.919 250.349 231.79 252.884 228.542 255.262L227.143 256.271C225.203 257.65 223.456 259.199 221.906 260.883C219.719 261.553 217.568 262.457 215.487 263.609C211.987 265.548 208.384 267.319 204.689 268.913L203.1 269.586C200.907 270.495 198.864 271.612 196.982 272.903C194.706 273.067 192.413 273.467 190.132 274.123C186.308 275.223 182.405 276.142 178.434 276.87L176.728 277.171C174.381 277.567 172.133 278.2 170.004 279.04C167.741 278.69 165.407 278.567 163.028 278.698C160.742 278.825 158.436 278.889 156.111 278.889C153.787 278.889 151.48 278.825 149.193 278.698L148.334 278.661C146.252 278.599 144.207 278.732 142.217 279.04C140.088 278.2 137.842 277.567 135.495 277.171L133.788 276.87C129.816 276.142 125.914 275.223 122.09 274.123C119.809 273.467 117.515 273.067 115.239 272.903C113.357 271.612 111.314 270.495 109.122 269.586L107.533 268.913C103.838 267.319 100.235 265.548 96.7344 263.609L95.9766 263.202C94.1329 262.241 92.2379 261.472 90.3154 260.883C88.7656 259.2 87.0196 257.65 85.0801 256.271L83.6807 255.262C80.4324 252.884 77.3038 250.349 74.3066 247.669L73.6582 247.104C72.0706 245.755 70.3902 244.581 68.6426 243.579C67.503 241.592 66.1418 239.692 64.5537 237.916L63.4141 236.623C60.7757 233.589 58.2842 230.425 55.9512 227.143L55.4434 226.447C54.1959 224.783 52.8194 223.27 51.3398 221.907C50.67 219.72 49.7659 217.568 48.6133 215.487L47.792 213.981C45.9014 210.452 44.1798 206.821 42.6367 203.1L42.2969 202.31C41.4542 200.415 40.453 198.637 39.3184 196.982C39.1543 194.706 38.7546 192.412 38.0986 190.132C36.8417 185.762 35.8214 181.289 35.0518 176.728L34.8975 175.881C34.4995 173.839 33.9192 171.876 33.1807 170.005C33.5313 167.741 33.656 165.407 33.5244 163.028L33.4404 161.311C33.3928 160.162 33.3617 159.009 33.3457 157.852L33.333 156.111C33.333 154.368 33.369 152.634 33.4404 150.912L33.5244 149.193C33.656 146.814 33.5315 144.48 33.1807 142.216C33.919 140.345 34.4996 138.382 34.8975 136.341L35.0518 135.495C35.8215 130.933 36.8417 126.46 38.0986 122.09C38.7546 119.809 39.1543 117.515 39.3184 115.239C40.4529 113.585 41.4543 111.808 42.2969 109.913L42.6367 109.122C44.1798 105.401 45.9014 101.77 47.792 98.2412L48.6133 96.7344C49.7659 94.6533 50.6701 92.5016 51.3398 90.3145C52.8192 88.9522 54.196 87.4392 55.4434 85.7754L55.9512 85.0801C58.2844 81.7976 60.7755 78.6332 63.4141 75.5986L64.5537 74.3066C66.142 72.5305 67.5029 70.6299 68.6426 68.6426C70.3901 67.6404 72.0708 66.4679 73.6582 65.1191L74.3066 64.5537C77.3038 61.8735 80.4324 59.339 83.6807 56.9609L85.0801 55.9512C87.0194 54.5727 88.7647 53.0228 90.3145 51.3398C92.2372 50.751 94.1327 49.9815 95.9766 49.0205L96.7344 48.6133C100.235 46.6746 103.838 44.9026 107.533 43.3086L109.122 42.6367C111.315 41.7275 113.357 40.6094 115.239 39.3184C117.515 39.1543 119.809 38.7546 122.09 38.0986C125.914 36.9988 129.816 36.0798 133.788 35.3516L135.495 35.0518C137.841 34.6558 140.088 34.0204 142.216 33.1807C144.207 33.4891 146.252 33.6229 148.334 33.5605L149.193 33.5244C151.48 33.398 153.787 33.333 156.111 33.333C158.436 33.333 160.742 33.398 163.028 33.5244C165.407 33.656 167.741 33.5313 170.005 33.1807Z" stroke="white" stroke-opacity="0.2" stroke-width="66.6667" stroke-linecap="round" stroke-linejoin="round" stroke-dasharray="16.67 16.67"/>
</svg>
