<svg width="90" height="90" viewBox="0 0 90 90" fill="none" xmlns="http://www.w3.org/2000/svg">
<path d="M45 4.21875C36.9342 4.21875 29.0496 6.61053 22.3432 11.0916C15.6367 15.5727 10.4097 21.9419 7.32306 29.3937C4.23642 36.8455 3.42882 45.0452 5.00237 52.956C6.57592 60.8668 10.46 68.1333 16.1633 73.8367C21.8667 79.5401 29.1332 83.4241 37.044 84.9976C44.9548 86.5712 53.1545 85.7636 60.6063 82.677C68.0581 79.5903 74.4273 74.3633 78.9084 67.6569C83.3895 60.9504 85.7813 53.0658 85.7813 45C85.7687 34.188 81.4681 23.8224 73.8229 16.1772C66.1776 8.5319 55.812 4.23129 45 4.21875ZM45 82.9688C37.4905 82.9688 30.1496 80.7419 23.9057 76.5699C17.6618 72.3978 12.7952 66.4679 9.92147 59.53C7.0477 52.5921 6.29579 44.9579 7.76083 37.5927C9.22586 30.2274 12.842 23.4621 18.1521 18.152C23.4621 12.842 30.2275 9.22584 37.5927 7.76081C44.9579 6.29578 52.5921 7.04768 59.53 9.92145C66.4679 12.7952 72.3978 17.6618 76.5699 23.9057C80.7419 30.1496 82.9688 37.4905 82.9688 45C82.9584 55.0668 78.9548 64.7183 71.8365 71.8365C64.7183 78.9548 55.0668 82.9584 45 82.9688Z" fill="#1053C1"/>
<path d="M48.769 54.2673C48.769 57.5904 50.0891 60.7773 52.4389 63.1271C54.7887 65.4769 57.9757 66.797 61.2987 66.797C64.6218 66.797 67.8088 65.4769 70.1586 63.1271C72.5083 60.7773 73.8284 57.5904 73.8284 54.2673C73.1675 37.6595 49.4159 37.6454 48.769 54.2673ZM68.0065 62.5501H54.5909C53.4723 62.5492 52.3998 62.1045 51.6088 61.3135C50.8178 60.5225 50.373 59.45 50.3722 58.3313V50.1892C50.3754 49.0713 50.8209 48.0001 51.6114 47.2097C52.4019 46.4192 53.473 45.9737 54.5909 45.9704H68.0065C69.1244 45.9737 70.1956 46.4192 70.986 47.2097C71.7765 48.0001 72.222 49.0713 72.2253 50.1892V58.3313C72.2244 59.45 71.7797 60.5225 70.9887 61.3135C70.1977 62.1045 69.1252 62.5492 68.0065 62.5501Z" fill="#1053C1"/>
<path d="M68.0064 48.7827H54.5908C54.3081 48.7861 54.0328 48.8735 53.8 49.0338C53.5671 49.194 53.3871 49.4199 53.283 49.6827H69.3001C69.2007 49.4195 69.0239 49.1926 68.7929 49.032C68.562 48.8713 68.2877 48.7844 68.0064 48.7827Z" fill="#1053C1"/>
<path d="M53.1841 58.3313C53.1834 58.5161 53.2194 58.6993 53.2898 58.8702C53.3603 59.0411 53.4638 59.1964 53.5945 59.3271C53.7252 59.4578 53.8805 59.5614 54.0514 59.6318C54.2223 59.7023 54.4055 59.7382 54.5903 59.7375H68.006C68.1908 59.7382 68.374 59.7023 68.5449 59.6318C68.7158 59.5614 68.8711 59.4578 69.0018 59.3271C69.1325 59.1964 69.236 59.0411 69.3065 58.8702C69.3769 58.6993 69.4129 58.5161 69.4122 58.3313V52.4954H53.1841V58.3313Z" fill="#1053C1"/>
<path d="M50.4843 43.3966C47.4706 42.2094 44.2593 41.6034 41.0202 41.6107C35.6063 41.608 30.3272 43.2985 25.9219 46.4455C21.5166 49.5925 18.2058 54.0384 16.453 59.1607C16.2067 59.9724 16.1541 60.8307 16.2995 61.6664C16.4449 62.5022 16.7841 63.2923 17.2901 63.9732C17.796 64.6542 18.4545 65.207 19.2127 65.5875C19.971 65.9679 20.8078 66.1653 21.6562 66.1638H51.6233C44.6765 60.9185 44.0577 49.331 50.4843 43.3966Z" fill="#1053C1"/>
<path d="M41.0203 38.7984C58.8234 38.0531 58.8234 12.6844 41.0203 11.9531C37.4604 11.9531 34.0463 13.3673 31.5291 15.8845C29.0118 18.4018 27.5977 21.8159 27.5977 25.3758C27.5977 28.9357 29.0118 32.3498 31.5291 34.867C34.0463 37.3843 37.4604 38.7984 41.0203 38.7984Z" fill="#1053C1"/>
</svg>
