<svg width="2757" height="1437" viewBox="0 0 2757 1437" fill="none" xmlns="http://www.w3.org/2000/svg">
<g filter="url(#filter0_f_38_1264)">
<path d="M2218.78 616.693C2330.45 586.416 2385 516.474 2340.62 460.472C2296.23 404.47 2169.72 383.616 2058.04 413.892C1946.37 444.169 1891.82 514.111 1936.2 570.113C1980.59 626.114 2107.1 646.969 2218.78 616.693Z" fill="#916EFF"/>
</g>
<g filter="url(#filter1_f_38_1264)">
<path d="M542.619 570.743C621.385 570.743 685.238 533.398 685.238 487.33C685.238 441.263 621.385 403.917 542.619 403.917C463.853 403.917 400 441.263 400 487.33C400 533.398 463.853 570.743 542.619 570.743Z" fill="#0065F2"/>
</g>
<g filter="url(#filter2_f_38_1264)">
<path d="M1267.72 1023.38C1352.94 1000.27 1401.23 955.318 1375.59 922.967C1349.95 890.617 1260.09 883.12 1174.87 906.223C1089.65 929.327 1041.36 974.281 1067 1006.63C1092.64 1038.98 1182.5 1046.48 1267.72 1023.38Z" fill="#FFC414"/>
</g>
<defs>
<filter id="filter0_f_38_1264" x="1520.76" y="0" width="1235.3" height="1030.59" filterUnits="userSpaceOnUse" color-interpolation-filters="sRGB">
<feFlood flood-opacity="0" result="BackgroundImageFix"/>
<feBlend mode="normal" in="SourceGraphic" in2="BackgroundImageFix" result="shape"/>
<feGaussianBlur stdDeviation="200" result="effect1_foregroundBlur_38_1264"/>
</filter>
<filter id="filter1_f_38_1264" x="0" y="3.91748" width="1085.24" height="966.826" filterUnits="userSpaceOnUse" color-interpolation-filters="sRGB">
<feFlood flood-opacity="0" result="BackgroundImageFix"/>
<feBlend mode="normal" in="SourceGraphic" in2="BackgroundImageFix" result="shape"/>
<feGaussianBlur stdDeviation="200" result="effect1_foregroundBlur_38_1264"/>
</filter>
<filter id="filter2_f_38_1264" x="660.121" y="492.814" width="1122.35" height="943.97" filterUnits="userSpaceOnUse" color-interpolation-filters="sRGB">
<feFlood flood-opacity="0" result="BackgroundImageFix"/>
<feBlend mode="normal" in="SourceGraphic" in2="BackgroundImageFix" result="shape"/>
<feGaussianBlur stdDeviation="200" result="effect1_foregroundBlur_38_1264"/>
</filter>
</defs>
</svg>
