<svg width="539" height="205" viewBox="0 0 539 205" fill="none" xmlns="http://www.w3.org/2000/svg">
<circle opacity="0.1" cx="282.353" cy="4.65125" r="4.65052" fill="#213D39"/>
<circle opacity="0.1" cx="282.353" cy="32.5543" r="4.65052" fill="#213D39"/>
<circle opacity="0.1" cx="282.353" cy="60.4576" r="4.65052" fill="#213D39"/>
<circle opacity="0.1" cx="282.353" cy="88.3607" r="4.65052" fill="#213D39"/>
<circle opacity="0.1" cx="282.353" cy="116.264" r="4.65052" fill="#213D39"/>
<circle opacity="0.1" cx="282.353" cy="144.167" r="4.65052" fill="#213D39"/>
<circle opacity="0.1" cx="282.353" cy="172.07" r="4.65052" fill="#213D39"/>
<circle opacity="0.1" cx="282.353" cy="199.973" r="4.65052" fill="#213D39"/>
<circle opacity="0.1" cx="310.256" cy="4.65125" r="4.65052" fill="#213D39"/>
<circle opacity="0.1" cx="310.256" cy="32.5543" r="4.65052" fill="#213D39"/>
<circle opacity="0.1" cx="310.256" cy="60.4576" r="4.65052" fill="#213D39"/>
<circle opacity="0.1" cx="310.256" cy="88.3607" r="4.65052" fill="#213D39"/>
<circle opacity="0.1" cx="310.256" cy="116.264" r="4.65052" fill="#213D39"/>
<circle opacity="0.1" cx="310.256" cy="144.167" r="4.65052" fill="#213D39"/>
<circle opacity="0.1" cx="310.256" cy="172.07" r="4.65052" fill="#213D39"/>
<circle opacity="0.1" cx="310.256" cy="199.973" r="4.65052" fill="#213D39"/>
<circle opacity="0.1" cx="338.159" cy="4.65125" r="4.65052" fill="#213D39"/>
<circle opacity="0.1" cx="338.159" cy="32.5543" r="4.65052" fill="#213D39"/>
<circle opacity="0.1" cx="338.159" cy="60.4576" r="4.65052" fill="#213D39"/>
<circle opacity="0.1" cx="338.159" cy="88.3607" r="4.65052" fill="#213D39"/>
<circle opacity="0.1" cx="338.159" cy="116.264" r="4.65052" fill="#213D39"/>
<circle opacity="0.1" cx="338.159" cy="144.167" r="4.65052" fill="#213D39"/>
<circle opacity="0.1" cx="338.159" cy="172.07" r="4.65052" fill="#213D39"/>
<circle opacity="0.1" cx="338.159" cy="199.973" r="4.65052" fill="#213D39"/>
<circle opacity="0.1" cx="366.062" cy="4.65125" r="4.65052" fill="#213D39"/>
<circle opacity="0.1" cx="366.062" cy="32.5543" r="4.65052" fill="#213D39"/>
<circle opacity="0.1" cx="366.062" cy="60.4576" r="4.65052" fill="#213D39"/>
<circle opacity="0.1" cx="366.062" cy="88.3607" r="4.65052" fill="#213D39"/>
<circle opacity="0.1" cx="366.062" cy="116.264" r="4.65052" fill="#213D39"/>
<circle opacity="0.1" cx="366.062" cy="144.167" r="4.65052" fill="#213D39"/>
<circle opacity="0.1" cx="366.062" cy="172.07" r="4.65052" fill="#213D39"/>
<circle opacity="0.1" cx="366.062" cy="199.973" r="4.65052" fill="#213D39"/>
<circle opacity="0.1" cx="393.965" cy="4.65125" r="4.65052" fill="#213D39"/>
<circle opacity="0.1" cx="393.965" cy="32.5543" r="4.65052" fill="#213D39"/>
<circle opacity="0.1" cx="393.965" cy="60.4576" r="4.65052" fill="#213D39"/>
<circle opacity="0.1" cx="393.965" cy="88.3607" r="4.65052" fill="#213D39"/>
<circle opacity="0.1" cx="393.965" cy="116.264" r="4.65052" fill="#213D39"/>
<circle opacity="0.1" cx="393.965" cy="144.167" r="4.65052" fill="#213D39"/>
<circle opacity="0.1" cx="393.965" cy="172.07" r="4.65052" fill="#213D39"/>
<circle opacity="0.1" cx="393.965" cy="199.973" r="4.65052" fill="#213D39"/>
<circle opacity="0.1" cx="421.868" cy="4.65125" r="4.65052" fill="#213D39"/>
<circle opacity="0.1" cx="421.868" cy="32.5543" r="4.65052" fill="#213D39"/>
<circle opacity="0.1" cx="421.868" cy="60.4576" r="4.65052" fill="#213D39"/>
<circle opacity="0.1" cx="421.868" cy="88.3607" r="4.65052" fill="#213D39"/>
<circle opacity="0.1" cx="421.868" cy="116.264" r="4.65052" fill="#213D39"/>
<circle opacity="0.1" cx="421.868" cy="144.167" r="4.65052" fill="#213D39"/>
<circle opacity="0.1" cx="421.868" cy="172.07" r="4.65052" fill="#213D39"/>
<circle opacity="0.1" cx="421.868" cy="199.973" r="4.65052" fill="#213D39"/>
<circle opacity="0.1" cx="449.772" cy="4.65125" r="4.65052" fill="#213D39"/>
<circle opacity="0.1" cx="449.772" cy="32.5543" r="4.65052" fill="#213D39"/>
<circle opacity="0.1" cx="449.772" cy="60.4576" r="4.65052" fill="#213D39"/>
<circle opacity="0.1" cx="449.772" cy="88.3607" r="4.65052" fill="#213D39"/>
<circle opacity="0.1" cx="449.772" cy="116.264" r="4.65052" fill="#213D39"/>
<circle opacity="0.1" cx="449.772" cy="144.167" r="4.65052" fill="#213D39"/>
<circle opacity="0.1" cx="449.772" cy="172.07" r="4.65052" fill="#213D39"/>
<circle opacity="0.1" cx="449.772" cy="199.973" r="4.65052" fill="#213D39"/>
<circle opacity="0.1" cx="477.675" cy="4.65125" r="4.65052" fill="#213D39"/>
<circle opacity="0.1" cx="477.675" cy="32.5543" r="4.65052" fill="#213D39"/>
<circle opacity="0.1" cx="477.675" cy="60.4576" r="4.65052" fill="#213D39"/>
<circle opacity="0.1" cx="477.675" cy="88.3607" r="4.65052" fill="#213D39"/>
<circle opacity="0.1" cx="477.675" cy="116.264" r="4.65052" fill="#213D39"/>
<circle opacity="0.1" cx="477.675" cy="144.167" r="4.65052" fill="#213D39"/>
<circle opacity="0.1" cx="477.675" cy="172.07" r="4.65052" fill="#213D39"/>
<circle opacity="0.1" cx="477.675" cy="199.973" r="4.65052" fill="#213D39"/>
<circle opacity="0.1" cx="505.578" cy="4.65125" r="4.65052" fill="#213D39"/>
<circle opacity="0.1" cx="505.578" cy="32.5543" r="4.65052" fill="#213D39"/>
<circle opacity="0.1" cx="505.578" cy="60.4576" r="4.65052" fill="#213D39"/>
<circle opacity="0.1" cx="505.578" cy="88.3607" r="4.65052" fill="#213D39"/>
<circle opacity="0.1" cx="505.578" cy="116.264" r="4.65052" fill="#213D39"/>
<circle opacity="0.1" cx="505.578" cy="144.167" r="4.65052" fill="#213D39"/>
<circle opacity="0.1" cx="505.578" cy="172.07" r="4.65052" fill="#213D39"/>
<circle opacity="0.1" cx="505.578" cy="199.973" r="4.65052" fill="#213D39"/>
<circle opacity="0.1" cx="533.481" cy="4.65125" r="4.65052" fill="#213D39"/>
<circle opacity="0.1" cx="533.481" cy="32.5543" r="4.65052" fill="#213D39"/>
<circle opacity="0.1" cx="533.481" cy="60.4576" r="4.65052" fill="#213D39"/>
<circle opacity="0.1" cx="533.481" cy="88.3607" r="4.65052" fill="#213D39"/>
<circle opacity="0.1" cx="533.481" cy="116.264" r="4.65052" fill="#213D39"/>
<circle opacity="0.1" cx="533.481" cy="144.167" r="4.65052" fill="#213D39"/>
<circle opacity="0.1" cx="533.481" cy="172.07" r="4.65052" fill="#213D39"/>
<circle opacity="0.1" cx="533.481" cy="199.973" r="4.65052" fill="#213D39"/>
<circle opacity="0.1" cx="4.65052" cy="4.65125" r="4.65052" fill="#213D39"/>
<circle opacity="0.1" cx="4.65052" cy="32.5543" r="4.65052" fill="#213D39"/>
<circle opacity="0.1" cx="4.65052" cy="60.4576" r="4.65052" fill="#213D39"/>
<circle opacity="0.1" cx="4.65052" cy="88.3607" r="4.65052" fill="#213D39"/>
<circle opacity="0.1" cx="4.65052" cy="116.264" r="4.65052" fill="#213D39"/>
<circle opacity="0.1" cx="4.65052" cy="144.167" r="4.65052" fill="#213D39"/>
<circle opacity="0.1" cx="4.65052" cy="172.07" r="4.65052" fill="#213D39"/>
<circle opacity="0.1" cx="4.65052" cy="199.973" r="4.65052" fill="#213D39"/>
<circle opacity="0.1" cx="32.5536" cy="4.65125" r="4.65052" fill="#213D39"/>
<circle opacity="0.1" cx="32.5536" cy="32.5543" r="4.65052" fill="#213D39"/>
<circle opacity="0.1" cx="32.5536" cy="60.4576" r="4.65052" fill="#213D39"/>
<circle opacity="0.1" cx="32.5536" cy="88.3607" r="4.65052" fill="#213D39"/>
<circle opacity="0.1" cx="32.5536" cy="116.264" r="4.65052" fill="#213D39"/>
<circle opacity="0.1" cx="32.5536" cy="144.167" r="4.65052" fill="#213D39"/>
<circle opacity="0.1" cx="32.5536" cy="172.07" r="4.65052" fill="#213D39"/>
<circle opacity="0.1" cx="32.5536" cy="199.973" r="4.65052" fill="#213D39"/>
<circle opacity="0.1" cx="60.4567" cy="4.65125" r="4.65052" fill="#213D39"/>
<circle opacity="0.1" cx="60.4567" cy="32.5543" r="4.65052" fill="#213D39"/>
<circle opacity="0.1" cx="60.4567" cy="60.4576" r="4.65052" fill="#213D39"/>
<circle opacity="0.1" cx="60.4567" cy="88.3607" r="4.65052" fill="#213D39"/>
<circle opacity="0.1" cx="60.4567" cy="116.264" r="4.65052" fill="#213D39"/>
<circle opacity="0.1" cx="60.4567" cy="144.167" r="4.65052" fill="#213D39"/>
<circle opacity="0.1" cx="60.4567" cy="172.07" r="4.65052" fill="#213D39"/>
<circle opacity="0.1" cx="60.4567" cy="199.973" r="4.65052" fill="#213D39"/>
<circle opacity="0.1" cx="88.3599" cy="4.65125" r="4.65052" fill="#213D39"/>
<circle opacity="0.1" cx="88.3599" cy="32.5543" r="4.65052" fill="#213D39"/>
<circle opacity="0.1" cx="88.3599" cy="60.4576" r="4.65052" fill="#213D39"/>
<circle opacity="0.1" cx="88.3599" cy="88.3607" r="4.65052" fill="#213D39"/>
<circle opacity="0.1" cx="88.3599" cy="116.264" r="4.65052" fill="#213D39"/>
<circle opacity="0.1" cx="88.3599" cy="144.167" r="4.65052" fill="#213D39"/>
<circle opacity="0.1" cx="88.3599" cy="172.07" r="4.65052" fill="#213D39"/>
<circle opacity="0.1" cx="88.3599" cy="199.973" r="4.65052" fill="#213D39"/>
<circle opacity="0.1" cx="116.263" cy="4.65125" r="4.65052" fill="#213D39"/>
<circle opacity="0.1" cx="116.263" cy="32.5543" r="4.65052" fill="#213D39"/>
<circle opacity="0.1" cx="116.263" cy="60.4576" r="4.65052" fill="#213D39"/>
<circle opacity="0.1" cx="116.263" cy="88.3607" r="4.65052" fill="#213D39"/>
<circle opacity="0.1" cx="116.263" cy="116.264" r="4.65052" fill="#213D39"/>
<circle opacity="0.1" cx="116.263" cy="144.167" r="4.65052" fill="#213D39"/>
<circle opacity="0.1" cx="116.263" cy="172.07" r="4.65052" fill="#213D39"/>
<circle opacity="0.1" cx="116.263" cy="199.973" r="4.65052" fill="#213D39"/>
<circle opacity="0.1" cx="144.166" cy="4.65125" r="4.65052" fill="#213D39"/>
<circle opacity="0.1" cx="144.166" cy="32.5543" r="4.65052" fill="#213D39"/>
<circle opacity="0.1" cx="144.166" cy="60.4576" r="4.65052" fill="#213D39"/>
<circle opacity="0.1" cx="144.166" cy="88.3607" r="4.65052" fill="#213D39"/>
<circle opacity="0.1" cx="144.166" cy="116.264" r="4.65052" fill="#213D39"/>
<circle opacity="0.1" cx="144.166" cy="144.167" r="4.65052" fill="#213D39"/>
<circle opacity="0.1" cx="144.166" cy="172.07" r="4.65052" fill="#213D39"/>
<circle opacity="0.1" cx="144.166" cy="199.973" r="4.65052" fill="#213D39"/>
<circle opacity="0.1" cx="172.069" cy="4.65125" r="4.65052" fill="#213D39"/>
<circle opacity="0.1" cx="172.069" cy="32.5543" r="4.65052" fill="#213D39"/>
<circle opacity="0.1" cx="172.069" cy="60.4576" r="4.65052" fill="#213D39"/>
<circle opacity="0.1" cx="172.069" cy="88.3607" r="4.65052" fill="#213D39"/>
<circle opacity="0.1" cx="172.069" cy="116.264" r="4.65052" fill="#213D39"/>
<circle opacity="0.1" cx="172.069" cy="144.167" r="4.65052" fill="#213D39"/>
<circle opacity="0.1" cx="172.069" cy="172.07" r="4.65052" fill="#213D39"/>
<circle opacity="0.1" cx="172.069" cy="199.973" r="4.65052" fill="#213D39"/>
<circle opacity="0.1" cx="199.972" cy="4.65125" r="4.65052" fill="#213D39"/>
<circle opacity="0.1" cx="199.972" cy="32.5543" r="4.65052" fill="#213D39"/>
<circle opacity="0.1" cx="199.972" cy="60.4576" r="4.65052" fill="#213D39"/>
<circle opacity="0.1" cx="199.972" cy="88.3607" r="4.65052" fill="#213D39"/>
<circle opacity="0.1" cx="199.972" cy="116.264" r="4.65052" fill="#213D39"/>
<circle opacity="0.1" cx="199.972" cy="144.167" r="4.65052" fill="#213D39"/>
<circle opacity="0.1" cx="199.972" cy="172.07" r="4.65052" fill="#213D39"/>
<circle opacity="0.1" cx="199.972" cy="199.973" r="4.65052" fill="#213D39"/>
<circle opacity="0.1" cx="227.875" cy="4.65125" r="4.65052" fill="#213D39"/>
<circle opacity="0.1" cx="227.875" cy="32.5543" r="4.65052" fill="#213D39"/>
<circle opacity="0.1" cx="227.875" cy="60.4576" r="4.65052" fill="#213D39"/>
<circle opacity="0.1" cx="227.875" cy="88.3607" r="4.65052" fill="#213D39"/>
<circle opacity="0.1" cx="227.875" cy="116.264" r="4.65052" fill="#213D39"/>
<circle opacity="0.1" cx="227.875" cy="144.167" r="4.65052" fill="#213D39"/>
<circle opacity="0.1" cx="227.875" cy="172.07" r="4.65052" fill="#213D39"/>
<circle opacity="0.1" cx="227.875" cy="199.973" r="4.65052" fill="#213D39"/>
<circle opacity="0.1" cx="255.779" cy="4.65125" r="4.65052" fill="#213D39"/>
<circle opacity="0.1" cx="255.779" cy="32.5543" r="4.65052" fill="#213D39"/>
<circle opacity="0.1" cx="255.779" cy="60.4576" r="4.65052" fill="#213D39"/>
<circle opacity="0.1" cx="255.779" cy="88.3607" r="4.65052" fill="#213D39"/>
<circle opacity="0.1" cx="255.779" cy="116.264" r="4.65052" fill="#213D39"/>
<circle opacity="0.1" cx="255.779" cy="144.167" r="4.65052" fill="#213D39"/>
<circle opacity="0.1" cx="255.779" cy="172.07" r="4.65052" fill="#213D39"/>
<circle opacity="0.1" cx="255.779" cy="199.973" r="4.65052" fill="#213D39"/>
</svg>
